# MagicaVoxel @ Ephtracy

# group
o 

# material
mtllib agriculture.vox-0.mtl
usemtl palette

# normals
vn -1 0 0
vn 1 0 0
vn 0 0 1
vn 0 0 -1
vn 0 -1 0
vn 0 1 0

# texcoords
vt 0.962891 0.5
vt 0.970703 0.5
vt 0.978516 0.5
vt 0.986328 0.5

# verts
v -2 0 2
v -2 0 1.7
v -2 0 1.5
v -2 0.1 2
v -2 0.1 1.7
v -2 0.2 1.7
v -2 0.2 1.5
v -1.9 0 1.5
v -1.9 0 1.4
v -1.9 0.2 1.5
v -1.9 0.2 1.4
v -1.8 0 1.4
v -1.8 0 1.3
v -1.8 0.2 1.4
v -1.8 0.2 1.3
v -1.7 0 1.3
v -1.7 0 1.2
v -1.7 0.1 2
v -1.7 0.1 1.6
v -1.7 0.2 2
v -1.7 0.2 1.6
v -1.7 0.2 1.3
v -1.7 0.2 1.2
v -1.6 0 1.2
v -1.6 0 1.1
v -1.6 0.1 1.5
v -1.6 0.1 1.3
v -1.6 0.2 2
v -1.6 0.2 1.7
v -1.6 0.2 1.5
v -1.6 0.2 1.3
v -1.6 0.2 1.2
v -1.6 0.2 1.1
v -1.6 0.3 2
v -1.6 0.3 1.7
v -1.4 0.1 1.3
v -1.4 0.1 1.2
v -1.4 0.2 1.3
v -1.4 0.2 1.2
v -1.3 0.1 1.4
v -1.3 0.1 1.3
v -1.3 0.2 1.4
v -1.3 0.2 1.3
v -1.2 0.1 1.5
v -1.2 0.1 1.4
v -1.2 0.2 1.5
v -1.2 0.2 1.4
v -1.1 0 0.8
v -1.1 0 0.7
v -1.1 0.1 1.7
v -1.1 0.1 1.5
v -1.1 0.1 0.8
v -1.1 0.1 0.7
v -1.1 0.2 1.7
v -1.1 0.2 1.5
v -1 0 1.5
v -1 0 0.8
v -1 0 0.7
v -1 0 0.6
v -1 0.1 1.5
v -1 0.1 1.4
v -1 0.1 1.3
v -1 0.1 0.8
v -1 0.1 0.7
v -1 0.1 0.6
v -1 0.2 1.4
v -1 0.2 1.3
v -1 0.2 0.8
v -1 0.2 0.7
v -0.9 0 0.6
v -0.9 0 0.5
v -0.9 0.1 2
v -0.9 0.1 1.4
v -0.9 0.1 1.3
v -0.9 0.1 0.8
v -0.9 0.1 0.7
v -0.9 0.1 0.6
v -0.9 0.1 0.5
v -0.9 0.2 2
v -0.9 0.2 1.4
v -0.9 0.2 1.3
v -0.9 0.2 0.8
v -0.9 0.2 0.7
v -0.9 0.2 0.6
v -0.9 0.3 1.4
v -0.9 0.3 1.3
v -0.9 0.3 0.8
v -0.9 0.3 0.7
v -0.8 0 0.5
v -0.8 0 0.4
v -0.8 0.1 0.6
v -0.8 0.1 0.5
v -0.8 0.1 0.4
v -0.8 0.2 2
v -0.8 0.2 1.6
v -0.8 0.2 1.5
v -0.8 0.2 1.4
v -0.8 0.2 1.3
v -0.8 0.2 1.1
v -0.8 0.2 1
v -0.8 0.2 0.8
v -0.8 0.2 0.7
v -0.8 0.2 0.6
v -0.8 0.2 0.5
v -0.8 0.3 2
v -0.8 0.3 1.6
v -0.8 0.3 1.5
v -0.8 0.3 1.4
v -0.8 0.3 1.3
v -0.8 0.3 1.1
v -0.8 0.3 1
v -0.8 0.3 0.8
v -0.8 0.3 0.7
v -0.8 0.3 0.6
v -1.9 0.1 1.7
v -1.9 0.1 1.5
v -1.9 0.2 1.7
v -1.9 0.2 1.5
v -1.8 0.1 1.5
v -1.8 0.1 1.4
v -1.8 0.2 1.5
v -1.8 0.2 1.4
v -1.7 0.1 1.4
v -1.7 0.1 1.3
v -1.7 0.2 1.4
v -1.7 0.2 1.3
v -1.6 0.1 1.3
v -1.6 0.1 1.2
v -1.6 0.2 1.3
v -1.6 0.2 1.2
v -1.4 0 1.2
v -1.4 0 1.1
v -1.4 0.1 1.5
v -1.4 0.1 1.3
v -1.4 0.2 2
v -1.4 0.2 1.7
v -1.4 0.2 1.5
v -1.4 0.2 1.3
v -1.4 0.2 1.2
v -1.4 0.2 1.1
v -1.4 0.3 2
v -1.4 0.3 1.7
v -1.3 0 1.3
v -1.3 0 1.2
v -1.3 0.1 2
v -1.3 0.1 1.6
v -1.3 0.2 2
v -1.3 0.2 1.6
v -1.3 0.2 1.3
v -1.3 0.2 1.2
v -1.2 0 1.4
v -1.2 0 1.3
v -1.2 0.2 1.4
v -1.2 0.2 1.3
v -1.1 0 1.5
v -1.1 0 1.4
v -1.1 0.2 1.5
v -1.1 0.2 1.4
v -1 0.1 1.7
v -1 0.1 1.5
v -1 0.2 1.7
v -1 0.2 1.5
v -0.7 0 0.5
v -0.7 0 0.4
v -0.7 0.1 0.6
v -0.7 0.1 0.5
v -0.7 0.1 0.4
v -0.7 0.2 2
v -0.7 0.2 1.8
v -0.7 0.2 1.7
v -0.7 0.2 1.6
v -0.7 0.2 1.5
v -0.7 0.2 1.1
v -0.7 0.2 1
v -0.7 0.2 0.8
v -0.7 0.2 0.7
v -0.7 0.2 0.6
v -0.7 0.2 0.5
v -0.7 0.3 2
v -0.7 0.3 1.6
v -0.7 0.3 1.5
v -0.7 0.3 1.1
v -0.7 0.3 1
v -0.7 0.3 0.8
v -0.7 0.3 0.7
v -0.7 0.3 0.6
v -0.6 0 0.6
v -0.6 0 0.5
v -0.6 0.1 2
v -0.6 0.1 1.8
v -0.6 0.1 1.7
v -0.6 0.1 1.6
v -0.6 0.1 1.5
v -0.6 0.1 1.1
v -0.6 0.1 1
v -0.6 0.1 0.8
v -0.6 0.1 0.7
v -0.6 0.1 0.6
v -0.6 0.1 0.5
v -0.6 0.2 2
v -0.6 0.2 1.8
v -0.6 0.2 1.7
v -0.6 0.2 1.6
v -0.6 0.2 1.5
v -0.6 0.2 1.1
v -0.6 0.2 1
v -0.6 0.2 0.8
v -0.6 0.2 0.7
v -0.6 0.2 0.6
v -0.6 0.3 0.8
v -0.6 0.3 0.7
v -0.5 0 2
v -0.5 0 0.8
v -0.5 0 0.7
v -0.5 0 0.6
v -0.5 0.1 2
v -0.5 0.1 1.8
v -0.5 0.1 1.7
v -0.5 0.1 0.8
v -0.5 0.1 0.7
v -0.5 0.1 0.6
v -0.5 0.2 1.8
v -0.5 0.2 1.7
v -0.5 0.2 0.8
v -0.5 0.2 0.7
v -0.4 0 0.8
v -0.4 0 0.7
v -0.4 0.1 0.8
v -0.4 0.1 0.7
v -2 0 2
v -2 0.1 2
v -1.7 0.1 2
v -1.7 0.2 2
v -1.6 0.2 2
v -1.6 0.3 2
v -1.4 0.2 2
v -1.4 0.3 2
v -1.3 0.1 2
v -1.3 0.2 2
v -1 0 2
v -1 0.1 2
v -0.9 0.1 2
v -0.9 0.2 2
v -0.8 0.2 2
v -0.8 0.3 2
v -0.7 0.2 2
v -0.7 0.3 2
v -0.6 0.1 2
v -0.6 0.2 2
v -0.5 0 2
v -0.5 0.1 2
v -0.6 0.1 1.8
v -0.6 0.2 1.8
v -0.5 0.1 1.8
v -0.5 0.2 1.8
v -2 0.1 1.7
v -2 0.2 1.7
v -1.9 0.1 1.7
v -1.9 0.2 1.7
v -1.1 0.1 1.7
v -1.1 0.2 1.7
v -1 0.1 1.7
v -1 0.2 1.7
v -1.9 0.1 1.5
v -1.9 0.2 1.5
v -1.8 0.1 1.5
v -1.8 0.2 1.5
v -1.6 0.1 1.5
v -1.6 0.2 1.5
v -1.4 0.1 1.5
v -1.4 0.2 1.5
v -1.2 0.1 1.5
v -1.2 0.2 1.5
v -1.1 0.1 1.5
v -1.1 0.2 1.5
v -1.8 0.1 1.4
v -1.8 0.2 1.4
v -1.7 0.1 1.4
v -1.7 0.2 1.4
v -1.3 0.1 1.4
v -1.3 0.2 1.4
v -1.2 0.1 1.4
v -1.2 0.2 1.4
v -1 0.1 1.4
v -1 0.2 1.4
v -0.9 0.1 1.4
v -0.9 0.2 1.4
v -0.9 0.3 1.4
v -0.8 0.2 1.4
v -0.8 0.3 1.4
v -1.7 0.1 1.3
v -1.7 0.2 1.3
v -1.6 0.1 1.3
v -1.6 0.2 1.3
v -1.4 0.1 1.3
v -1.4 0.2 1.3
v -1.3 0.1 1.3
v -1.3 0.2 1.3
v -1.6 0.1 1.2
v -1.6 0.2 1.2
v -1.4 0.1 1.2
v -1.4 0.2 1.2
v -1.1 0 0.8
v -1.1 0.1 0.8
v -1 0 0.8
v -1 0.1 0.8
v -1 0.2 0.8
v -0.9 0.1 0.8
v -0.9 0.2 0.8
v -0.9 0.3 0.8
v -0.8 0.2 0.8
v -0.8 0.3 0.8
v -0.7 0.2 0.8
v -0.7 0.3 0.8
v -0.6 0.1 0.8
v -0.6 0.2 0.8
v -0.6 0.3 0.8
v -0.5 0 0.8
v -0.5 0.1 0.8
v -0.5 0.2 0.8
v -0.4 0 0.8
v -0.4 0.1 0.8
v -1.6 0.2 1.7
v -1.6 0.3 1.7
v -1.4 0.2 1.7
v -1.4 0.3 1.7
v -0.6 0.1 1.7
v -0.6 0.2 1.7
v -0.5 0.1 1.7
v -0.5 0.2 1.7
v -1.7 0.1 1.6
v -1.7 0.2 1.6
v -1.3 0.1 1.6
v -1.3 0.2 1.6
v -2 0 1.5
v -2 0.2 1.5
v -1.9 0 1.5
v -1.9 0.2 1.5
v -1.1 0 1.5
v -1.1 0.2 1.5
v -1 0 1.5
v -1 0.1 1.5
v -1 0.2 1.5
v -1.9 0 1.4
v -1.9 0.2 1.4
v -1.8 0 1.4
v -1.8 0.2 1.4
v -1.2 0 1.4
v -1.2 0.2 1.4
v -1.1 0 1.4
v -1.1 0.2 1.4
v -1.8 0 1.3
v -1.8 0.2 1.3
v -1.7 0 1.3
v -1.7 0.2 1.3
v -1.6 0.1 1.3
v -1.6 0.2 1.3
v -1.4 0.1 1.3
v -1.4 0.2 1.3
v -1.3 0 1.3
v -1.3 0.2 1.3
v -1.2 0 1.3
v -1.2 0.2 1.3
v -1 0.1 1.3
v -1 0.2 1.3
v -0.9 0.1 1.3
v -0.9 0.2 1.3
v -0.9 0.3 1.3
v -0.8 0.2 1.3
v -0.8 0.3 1.3
v -1.7 0 1.2
v -1.7 0.2 1.2
v -1.6 0 1.2
v -1.6 0.2 1.2
v -1.4 0 1.2
v -1.4 0.2 1.2
v -1.3 0 1.2
v -1.3 0.2 1.2
v -1.6 0 1.1
v -1.6 0.2 1.1
v -1.4 0 1.1
v -1.4 0.2 1.1
v -1.1 0 0.7
v -1.1 0.1 0.7
v -1 0 0.7
v -1 0.1 0.7
v -1 0.2 0.7
v -0.9 0.1 0.7
v -0.9 0.2 0.7
v -0.9 0.3 0.7
v -0.8 0.2 0.7
v -0.8 0.3 0.7
v -0.7 0.2 0.7
v -0.7 0.3 0.7
v -0.6 0.1 0.7
v -0.6 0.2 0.7
v -0.6 0.3 0.7
v -0.5 0 0.7
v -0.5 0.1 0.7
v -0.5 0.2 0.7
v -0.4 0 0.7
v -0.4 0.1 0.7
v -1 0 0.6
v -1 0.1 0.6
v -0.9 0 0.6
v -0.9 0.1 0.6
v -0.9 0.2 0.6
v -0.8 0.1 0.6
v -0.8 0.2 0.6
v -0.8 0.3 0.6
v -0.7 0.1 0.6
v -0.7 0.2 0.6
v -0.7 0.3 0.6
v -0.6 0 0.6
v -0.6 0.1 0.6
v -0.6 0.2 0.6
v -0.5 0 0.6
v -0.5 0.1 0.6
v -0.9 0 0.5
v -0.9 0.1 0.5
v -0.8 0 0.5
v -0.8 0.1 0.5
v -0.8 0.2 0.5
v -0.7 0 0.5
v -0.7 0.1 0.5
v -0.7 0.2 0.5
v -0.6 0 0.5
v -0.6 0.1 0.5
v -0.8 0 0.4
v -0.8 0.1 0.4
v -0.7 0 0.4
v -0.7 0.1 0.4
v -2 0 2
v -1 0 2
v -0.5 0 2
v -2 0 1.7
v -1.9 0 1.7
v -1.1 0 1.7
v -1 0 1.7
v -2 0 1.5
v -1.9 0 1.5
v -1.8 0 1.5
v -1.6 0 1.5
v -1.4 0 1.5
v -1.2 0 1.5
v -1.1 0 1.5
v -1 0 1.5
v -1.9 0 1.4
v -1.8 0 1.4
v -1.7 0 1.4
v -1.3 0 1.4
v -1.2 0 1.4
v -1.1 0 1.4
v -1.8 0 1.3
v -1.7 0 1.3
v -1.6 0 1.3
v -1.4 0 1.3
v -1.3 0 1.3
v -1.2 0 1.3
v -1.7 0 1.2
v -1.6 0 1.2
v -1.4 0 1.2
v -1.3 0 1.2
v -1.6 0 1.1
v -1.4 0 1.1
v -1.1 0 0.8
v -1 0 0.8
v -0.5 0 0.8
v -0.4 0 0.8
v -1.1 0 0.7
v -1 0 0.7
v -0.5 0 0.7
v -0.4 0 0.7
v -1 0 0.6
v -0.9 0 0.6
v -0.6 0 0.6
v -0.5 0 0.6
v -0.9 0 0.5
v -0.8 0 0.5
v -0.7 0 0.5
v -0.6 0 0.5
v -0.8 0 0.4
v -0.7 0 0.4
v -2 0.1 2
v -1.7 0.1 2
v -1.3 0.1 2
v -1 0.1 2
v -0.9 0.1 2
v -0.6 0.1 2
v -0.5 0.1 2
v -0.6 0.1 1.8
v -0.5 0.1 1.8
v -2 0.1 1.7
v -1.9 0.1 1.7
v -1.1 0.1 1.7
v -1 0.1 1.7
v -0.6 0.1 1.7
v -0.5 0.1 1.7
v -1.7 0.1 1.6
v -1.3 0.1 1.6
v -0.6 0.1 1.6
v -1.9 0.1 1.5
v -1.8 0.1 1.5
v -1.6 0.1 1.5
v -1.4 0.1 1.5
v -1.2 0.1 1.5
v -1.1 0.1 1.5
v -1 0.1 1.5
v -0.6 0.1 1.5
v -1.8 0.1 1.4
v -1.7 0.1 1.4
v -1.3 0.1 1.4
v -1.2 0.1 1.4
v -1 0.1 1.4
v -0.9 0.1 1.4
v -1.7 0.1 1.3
v -1.6 0.1 1.3
v -1.4 0.1 1.3
v -1.3 0.1 1.3
v -1 0.1 1.3
v -0.9 0.1 1.3
v -1.6 0.1 1.2
v -1.4 0.1 1.2
v -0.6 0.1 1.1
v -0.6 0.1 1
v -1.1 0.1 0.8
v -1 0.1 0.8
v -0.9 0.1 0.8
v -0.6 0.1 0.8
v -0.5 0.1 0.8
v -0.4 0.1 0.8
v -1.1 0.1 0.7
v -1 0.1 0.7
v -0.9 0.1 0.7
v -0.6 0.1 0.7
v -0.5 0.1 0.7
v -0.4 0.1 0.7
v -1 0.1 0.6
v -0.9 0.1 0.6
v -0.8 0.1 0.6
v -0.7 0.1 0.6
v -0.6 0.1 0.6
v -0.5 0.1 0.6
v -0.9 0.1 0.5
v -0.8 0.1 0.5
v -0.7 0.1 0.5
v -0.6 0.1 0.5
v -0.8 0.1 0.4
v -0.7 0.1 0.4
v -1.7 0.2 2
v -1.6 0.2 2
v -1.4 0.2 2
v -1.3 0.2 2
v -0.9 0.2 2
v -0.8 0.2 2
v -0.7 0.2 2
v -0.6 0.2 2
v -0.7 0.2 1.8
v -0.6 0.2 1.8
v -0.5 0.2 1.8
v -2 0.2 1.7
v -1.9 0.2 1.7
v -1.6 0.2 1.7
v -1.4 0.2 1.7
v -1.1 0.2 1.7
v -1 0.2 1.7
v -0.7 0.2 1.7
v -0.6 0.2 1.7
v -0.5 0.2 1.7
v -1.7 0.2 1.6
v -1.3 0.2 1.6
v -0.8 0.2 1.6
v -0.7 0.2 1.6
v -0.6 0.2 1.6
v -2 0.2 1.5
v -1.9 0.2 1.5
v -1.8 0.2 1.5
v -1.6 0.2 1.5
v -1.4 0.2 1.5
v -1.2 0.2 1.5
v -1.1 0.2 1.5
v -1 0.2 1.5
v -0.8 0.2 1.5
v -0.7 0.2 1.5
v -0.6 0.2 1.5
v -1.9 0.2 1.4
v -1.8 0.2 1.4
v -1.7 0.2 1.4
v -1.3 0.2 1.4
v -1.2 0.2 1.4
v -1.1 0.2 1.4
v -1 0.2 1.4
v -0.9 0.2 1.4
v -0.8 0.2 1.4
v -1.8 0.2 1.3
v -1.7 0.2 1.3
v -1.6 0.2 1.3
v -1.4 0.2 1.3
v -1.3 0.2 1.3
v -1.2 0.2 1.3
v -1 0.2 1.3
v -0.9 0.2 1.3
v -0.8 0.2 1.3
v -1.7 0.2 1.2
v -1.6 0.2 1.2
v -1.4 0.2 1.2
v -1.3 0.2 1.2
v -1.6 0.2 1.1
v -1.4 0.2 1.1
v -0.8 0.2 1.1
v -0.7 0.2 1.1
v -0.6 0.2 1.1
v -0.8 0.2 1
v -0.7 0.2 1
v -0.6 0.2 1
v -1 0.2 0.8
v -0.9 0.2 0.8
v -0.8 0.2 0.8
v -0.7 0.2 0.8
v -0.6 0.2 0.8
v -0.5 0.2 0.8
v -1 0.2 0.7
v -0.9 0.2 0.7
v -0.8 0.2 0.7
v -0.7 0.2 0.7
v -0.6 0.2 0.7
v -0.5 0.2 0.7
v -0.9 0.2 0.6
v -0.8 0.2 0.6
v -0.7 0.2 0.6
v -0.6 0.2 0.6
v -0.8 0.2 0.5
v -0.7 0.2 0.5
v -1.6 0.3 2
v -1.4 0.3 2
v -0.8 0.3 2
v -0.7 0.3 2
v -1.6 0.3 1.7
v -1.4 0.3 1.7
v -0.8 0.3 1.6
v -0.7 0.3 1.6
v -0.8 0.3 1.5
v -0.7 0.3 1.5
v -0.9 0.3 1.4
v -0.8 0.3 1.4
v -0.9 0.3 1.3
v -0.8 0.3 1.3
v -0.8 0.3 1.1
v -0.7 0.3 1.1
v -0.8 0.3 1
v -0.7 0.3 1
v -0.9 0.3 0.8
v -0.8 0.3 0.8
v -0.7 0.3 0.8
v -0.6 0.3 0.8
v -0.9 0.3 0.7
v -0.8 0.3 0.7
v -0.7 0.3 0.7
v -0.6 0.3 0.7
v -0.8 0.3 0.6
v -0.7 0.3 0.6

# faces
f 4/1/1 2/1/1 1/1/1
f 5/3/1 3/3/1 2/3/1
f 5/1/1 2/1/1 4/1/1
f 6/3/1 3/3/1 5/3/1
f 7/3/1 3/3/1 6/3/1
f 10/3/1 9/3/1 8/3/1
f 11/3/1 9/3/1 10/3/1
f 14/3/1 13/3/1 12/3/1
f 15/3/1 13/3/1 14/3/1
f 20/3/1 19/3/1 18/3/1
f 21/3/1 19/3/1 20/3/1
f 22/3/1 17/3/1 16/3/1
f 23/3/1 17/3/1 22/3/1
f 30/3/1 27/3/1 26/3/1
f 31/3/1 27/3/1 30/3/1
f 32/3/1 25/3/1 24/3/1
f 33/3/1 25/3/1 32/3/1
f 34/4/1 29/4/1 28/4/1
f 35/4/1 29/4/1 34/4/1
f 38/3/1 37/3/1 36/3/1
f 39/3/1 37/3/1 38/3/1
f 42/3/1 41/3/1 40/3/1
f 43/3/1 41/3/1 42/3/1
f 46/3/1 45/3/1 44/3/1
f 47/3/1 45/3/1 46/3/1
f 52/4/1 49/4/1 48/4/1
f 53/4/1 49/4/1 52/4/1
f 54/3/1 51/3/1 50/3/1
f 55/3/1 51/3/1 54/3/1
f 60/3/1 57/3/1 56/3/1
f 61/3/1 57/3/1 60/3/1
f 62/3/1 57/3/1 61/3/1
f 63/3/1 57/3/1 62/3/1
f 64/4/1 59/4/1 58/4/1
f 65/4/1 59/4/1 64/4/1
f 66/4/1 62/4/1 61/4/1
f 67/4/1 62/4/1 66/4/1
f 68/4/1 64/4/1 63/4/1
f 69/4/1 64/4/1 68/4/1
f 77/4/1 71/4/1 70/4/1
f 78/4/1 71/4/1 77/4/1
f 79/3/1 73/3/1 72/3/1
f 80/3/1 73/3/1 79/3/1
f 81/3/1 75/3/1 74/3/1
f 82/3/1 75/3/1 81/3/1
f 83/4/1 77/4/1 76/4/1
f 84/4/1 77/4/1 83/4/1
f 85/4/1 81/4/1 80/4/1
f 86/4/1 81/4/1 85/4/1
f 87/4/1 83/4/1 82/4/1
f 88/4/1 83/4/1 87/4/1
f 92/4/1 90/4/1 89/4/1
f 93/4/1 90/4/1 92/4/1
f 103/4/1 92/4/1 91/4/1
f 104/4/1 92/4/1 103/4/1
f 105/3/1 95/3/1 94/3/1
f 106/4/1 96/4/1 95/4/1
f 106/3/1 95/3/1 105/3/1
f 107/3/1 97/3/1 96/3/1
f 107/4/1 96/4/1 106/4/1
f 108/3/1 97/3/1 107/3/1
f 109/3/1 99/3/1 98/3/1
f 110/4/1 100/4/1 99/4/1
f 110/3/1 99/3/1 109/3/1
f 111/3/1 101/3/1 100/3/1
f 111/4/1 100/4/1 110/4/1
f 112/3/1 101/3/1 111/3/1
f 113/4/1 103/4/1 102/4/1
f 114/4/1 103/4/1 113/4/1
f 115/3/2 116/3/2 117/3/2
f 117/3/2 116/3/2 118/3/2
f 119/3/2 120/3/2 121/3/2
f 121/3/2 120/3/2 122/3/2
f 123/3/2 124/3/2 125/3/2
f 125/3/2 124/3/2 126/3/2
f 127/3/2 128/3/2 129/3/2
f 129/3/2 128/3/2 130/3/2
f 133/3/2 134/3/2 137/3/2
f 137/3/2 134/3/2 138/3/2
f 131/3/2 132/3/2 139/3/2
f 139/3/2 132/3/2 140/3/2
f 135/4/2 136/4/2 141/4/2
f 141/4/2 136/4/2 142/4/2
f 145/3/2 146/3/2 147/3/2
f 147/3/2 146/3/2 148/3/2
f 143/3/2 144/3/2 149/3/2
f 149/3/2 144/3/2 150/3/2
f 151/3/2 152/3/2 153/3/2
f 153/3/2 152/3/2 154/3/2
f 155/3/2 156/3/2 157/3/2
f 157/3/2 156/3/2 158/3/2
f 159/3/2 160/3/2 161/3/2
f 161/3/2 160/3/2 162/3/2
f 163/4/2 164/4/2 166/4/2
f 166/4/2 164/4/2 167/4/2
f 165/4/2 166/4/2 177/4/2
f 177/4/2 166/4/2 178/4/2
f 168/3/2 169/3/2 179/3/2
f 169/3/2 170/3/2 179/3/2
f 170/3/2 171/3/2 179/3/2
f 171/4/2 172/4/2 180/4/2
f 179/3/2 171/3/2 180/3/2
f 172/3/2 173/3/2 181/3/2
f 180/4/2 172/4/2 181/4/2
f 173/4/2 174/4/2 182/4/2
f 181/3/2 173/3/2 182/3/2
f 174/3/2 175/3/2 183/3/2
f 182/4/2 174/4/2 183/4/2
f 183/3/2 175/3/2 184/3/2
f 176/4/2 177/4/2 185/4/2
f 185/4/2 177/4/2 186/4/2
f 187/4/2 188/4/2 198/4/2
f 198/4/2 188/4/2 199/4/2
f 189/3/2 190/3/2 200/3/2
f 200/3/2 190/3/2 201/3/2
f 191/3/2 192/3/2 202/3/2
f 192/4/2 193/4/2 203/4/2
f 202/3/2 192/3/2 203/3/2
f 193/3/2 194/3/2 204/3/2
f 203/4/2 193/4/2 204/4/2
f 194/4/2 195/4/2 205/4/2
f 204/3/2 194/3/2 205/3/2
f 195/3/2 196/3/2 206/3/2
f 205/4/2 195/4/2 206/4/2
f 206/3/2 196/3/2 207/3/2
f 197/4/2 198/4/2 208/4/2
f 208/4/2 198/4/2 209/4/2
f 207/4/2 208/4/2 210/4/2
f 210/4/2 208/4/2 211/4/2
f 212/3/2 213/3/2 216/3/2
f 216/3/2 213/3/2 217/3/2
f 217/3/2 213/3/2 218/3/2
f 218/3/2 213/3/2 219/3/2
f 214/4/2 215/4/2 220/4/2
f 220/4/2 215/4/2 221/4/2
f 217/4/2 218/4/2 222/4/2
f 222/4/2 218/4/2 223/4/2
f 219/4/2 220/4/2 224/4/2
f 224/4/2 220/4/2 225/4/2
f 226/4/2 227/4/2 228/4/2
f 228/4/2 227/4/2 229/4/2
f 232/1/3 231/1/3 230/1/3
f 234/3/3 233/3/3 232/3/3
f 236/3/3 234/3/3 232/3/3
f 236/4/3 235/4/3 234/4/3
f 237/4/3 235/4/3 236/4/3
f 238/1/3 232/1/3 230/1/3
f 238/3/3 236/3/3 232/3/3
f 239/3/3 236/3/3 238/3/3
f 240/1/3 238/1/3 230/1/3
f 241/1/3 238/1/3 240/1/3
f 242/3/3 241/3/3 240/3/3
f 244/3/3 243/3/3 242/3/3
f 246/3/3 244/3/3 242/3/3
f 246/3/3 245/3/3 244/3/3
f 247/3/3 245/3/3 246/3/3
f 248/3/3 242/3/3 240/3/3
f 248/3/3 246/3/3 242/3/3
f 249/3/3 246/3/3 248/3/3
f 250/3/3 248/3/3 240/3/3
f 251/3/3 248/3/3 250/3/3
f 254/4/3 253/4/3 252/4/3
f 255/4/3 253/4/3 254/4/3
f 258/3/3 257/3/3 256/3/3
f 259/3/3 257/3/3 258/3/3
f 262/3/3 261/3/3 260/3/3
f 263/3/3 261/3/3 262/3/3
f 266/3/3 265/3/3 264/3/3
f 267/3/3 265/3/3 266/3/3
f 270/3/3 269/3/3 268/3/3
f 271/3/3 269/3/3 270/3/3
f 274/3/3 273/3/3 272/3/3
f 275/3/3 273/3/3 274/3/3
f 278/3/3 277/3/3 276/3/3
f 279/3/3 277/3/3 278/3/3
f 282/3/3 281/3/3 280/3/3
f 283/3/3 281/3/3 282/3/3
f 286/4/3 285/4/3 284/4/3
f 287/4/3 285/4/3 286/4/3
f 289/4/3 288/4/3 287/4/3
f 290/4/3 288/4/3 289/4/3
f 293/3/3 292/3/3 291/3/3
f 294/3/3 292/3/3 293/3/3
f 297/3/3 296/3/3 295/3/3
f 298/3/3 296/3/3 297/3/3
f 301/3/3 300/3/3 299/3/3
f 302/3/3 300/3/3 301/3/3
f 305/4/3 304/4/3 303/4/3
f 306/4/3 304/4/3 305/4/3
f 308/4/3 307/4/3 306/4/3
f 309/4/3 307/4/3 308/4/3
f 311/4/3 310/4/3 309/4/3
f 312/4/3 310/4/3 311/4/3
f 316/4/3 314/4/3 313/4/3
f 317/4/3 314/4/3 316/4/3
f 319/4/3 316/4/3 315/4/3
f 320/4/3 316/4/3 319/4/3
f 321/4/3 319/4/3 318/4/3
f 322/4/3 319/4/3 321/4/3
f 323/4/4 324/4/4 325/4/4
f 325/4/4 324/4/4 326/4/4
f 327/4/4 328/4/4 329/4/4
f 329/4/4 328/4/4 330/4/4
f 331/3/4 332/3/4 333/3/4
f 333/3/4 332/3/4 334/3/4
f 335/3/4 336/3/4 337/3/4
f 337/3/4 336/3/4 338/3/4
f 339/3/4 340/3/4 341/3/4
f 341/3/4 340/3/4 342/3/4
f 342/3/4 340/3/4 343/3/4
f 344/3/4 345/3/4 346/3/4
f 346/3/4 345/3/4 347/3/4
f 348/3/4 349/3/4 350/3/4
f 350/3/4 349/3/4 351/3/4
f 352/3/4 353/3/4 354/3/4
f 354/3/4 353/3/4 355/3/4
f 356/3/4 357/3/4 358/3/4
f 358/3/4 357/3/4 359/3/4
f 360/3/4 361/3/4 362/3/4
f 362/3/4 361/3/4 363/3/4
f 364/4/4 365/4/4 366/4/4
f 366/4/4 365/4/4 367/4/4
f 367/4/4 368/4/4 369/4/4
f 369/4/4 368/4/4 370/4/4
f 371/3/4 372/3/4 373/3/4
f 373/3/4 372/3/4 374/3/4
f 375/3/4 376/3/4 377/3/4
f 377/3/4 376/3/4 378/3/4
f 379/3/4 380/3/4 381/3/4
f 381/3/4 380/3/4 382/3/4
f 383/4/4 384/4/4 385/4/4
f 385/4/4 384/4/4 386/4/4
f 386/4/4 387/4/4 388/4/4
f 388/4/4 387/4/4 389/4/4
f 389/4/4 390/4/4 391/4/4
f 391/4/4 390/4/4 392/4/4
f 393/4/4 394/4/4 396/4/4
f 396/4/4 394/4/4 397/4/4
f 395/4/4 396/4/4 399/4/4
f 399/4/4 396/4/4 400/4/4
f 398/4/4 399/4/4 401/4/4
f 401/4/4 399/4/4 402/4/4
f 403/4/4 404/4/4 405/4/4
f 405/4/4 404/4/4 406/4/4
f 406/4/4 407/4/4 408/4/4
f 408/4/4 407/4/4 409/4/4
f 409/4/4 410/4/4 412/4/4
f 412/4/4 410/4/4 413/4/4
f 411/4/4 412/4/4 415/4/4
f 415/4/4 412/4/4 416/4/4
f 414/4/4 415/4/4 417/4/4
f 417/4/4 415/4/4 418/4/4
f 419/4/4 420/4/4 421/4/4
f 421/4/4 420/4/4 422/4/4
f 422/4/4 423/4/4 425/4/4
f 425/4/4 423/4/4 426/4/4
f 424/4/4 425/4/4 427/4/4
f 427/4/4 425/4/4 428/4/4
f 429/4/4 430/4/4 431/4/4
f 431/4/4 430/4/4 432/4/4
f 436/1/5 434/1/5 433/1/5
f 437/1/5 434/1/5 436/1/5
f 438/1/5 434/1/5 437/1/5
f 439/3/5 435/3/5 434/3/5
f 439/1/5 434/1/5 438/1/5
f 440/3/5 437/3/5 436/3/5
f 441/1/5 438/1/5 437/1/5
f 441/3/5 437/3/5 440/3/5
f 442/1/5 438/1/5 441/1/5
f 443/1/5 438/1/5 442/1/5
f 444/1/5 438/1/5 443/1/5
f 445/1/5 438/1/5 444/1/5
f 446/3/5 439/3/5 438/3/5
f 446/1/5 438/1/5 445/1/5
f 447/3/5 435/3/5 439/3/5
f 447/3/5 439/3/5 446/3/5
f 448/3/5 442/3/5 441/3/5
f 449/1/5 443/1/5 442/1/5
f 449/3/5 442/3/5 448/3/5
f 450/1/5 443/1/5 449/1/5
f 451/1/5 445/1/5 444/1/5
f 452/3/5 446/3/5 445/3/5
f 452/1/5 445/1/5 451/1/5
f 453/3/5 446/3/5 452/3/5
f 454/3/5 450/3/5 449/3/5
f 455/1/5 443/1/5 450/1/5
f 455/3/5 450/3/5 454/3/5
f 456/2/5 444/2/5 443/2/5
f 456/1/5 443/1/5 455/1/5
f 457/1/5 451/1/5 444/1/5
f 457/2/5 444/2/5 456/2/5
f 458/3/5 452/3/5 451/3/5
f 458/1/5 451/1/5 457/1/5
f 459/3/5 452/3/5 458/3/5
f 460/3/5 456/3/5 455/3/5
f 461/1/5 457/1/5 456/1/5
f 461/3/5 456/3/5 460/3/5
f 462/3/5 458/3/5 457/3/5
f 462/1/5 457/1/5 461/1/5
f 463/3/5 458/3/5 462/3/5
f 464/3/5 462/3/5 461/3/5
f 465/3/5 462/3/5 464/3/5
f 467/3/5 435/3/5 447/3/5
f 468/3/5 435/3/5 467/3/5
f 470/4/5 467/4/5 466/4/5
f 470/4/5 469/4/5 468/4/5
f 470/4/5 468/4/5 467/4/5
f 471/4/5 469/4/5 470/4/5
f 472/4/5 469/4/5 471/4/5
f 473/4/5 469/4/5 472/4/5
f 474/4/5 472/4/5 471/4/5
f 475/4/5 472/4/5 474/4/5
f 476/4/5 472/4/5 475/4/5
f 477/4/5 472/4/5 476/4/5
f 478/4/5 476/4/5 475/4/5
f 479/4/5 476/4/5 478/4/5
f 480/4/5 476/4/5 479/4/5
f 481/4/5 476/4/5 480/4/5
f 482/4/5 480/4/5 479/4/5
f 483/4/5 480/4/5 482/4/5
f 489/3/6 490/3/6 491/3/6
f 491/3/6 490/3/6 492/3/6
f 484/1/6 485/1/6 493/1/6
f 493/1/6 485/1/6 494/1/6
f 486/1/6 487/1/6 495/1/6
f 487/3/6 488/3/6 496/3/6
f 495/1/6 487/1/6 496/1/6
f 494/1/6 485/1/6 499/1/6
f 486/1/6 495/1/6 500/1/6
f 497/3/6 498/3/6 501/3/6
f 499/1/6 500/1/6 502/1/6
f 494/1/6 499/1/6 502/1/6
f 502/1/6 500/1/6 503/1/6
f 503/1/6 500/1/6 504/1/6
f 504/1/6 500/1/6 505/1/6
f 500/1/6 495/1/6 506/1/6
f 505/1/6 500/1/6 506/1/6
f 506/1/6 495/1/6 507/1/6
f 496/3/6 488/3/6 508/3/6
f 501/3/6 498/3/6 509/3/6
f 503/1/6 504/1/6 510/1/6
f 510/1/6 504/1/6 511/1/6
f 505/1/6 506/1/6 512/1/6
f 512/1/6 506/1/6 513/1/6
f 508/3/6 488/3/6 514/3/6
f 514/3/6 488/3/6 515/3/6
f 511/1/6 504/1/6 516/1/6
f 516/1/6 504/1/6 517/1/6
f 505/1/6 512/1/6 518/1/6
f 518/1/6 512/1/6 519/1/6
f 517/1/6 518/1/6 522/1/6
f 522/1/6 518/1/6 523/1/6
f 509/3/6 498/3/6 524/3/6
f 524/3/6 498/3/6 525/3/6
f 520/3/6 521/3/6 527/3/6
f 527/3/6 521/3/6 528/3/6
f 525/3/6 498/3/6 529/3/6
f 529/3/6 498/3/6 530/3/6
f 526/4/6 527/4/6 532/4/6
f 532/4/6 527/4/6 533/4/6
f 530/4/6 531/4/6 536/4/6
f 536/4/6 531/4/6 537/4/6
f 533/4/6 534/4/6 538/4/6
f 538/4/6 534/4/6 539/4/6
f 535/4/6 536/4/6 542/4/6
f 542/4/6 536/4/6 543/4/6
f 539/4/6 540/4/6 544/4/6
f 544/4/6 540/4/6 545/4/6
f 541/4/6 542/4/6 546/4/6
f 546/4/6 542/4/6 547/4/6
f 545/4/6 546/4/6 548/4/6
f 548/4/6 546/4/6 549/4/6
f 556/3/6 557/3/6 558/3/6
f 558/3/6 557/3/6 559/3/6
f 550/3/6 551/3/6 563/3/6
f 552/3/6 553/3/6 564/3/6
f 558/4/6 559/4/6 567/4/6
f 559/4/6 560/4/6 567/4/6
f 567/4/6 560/4/6 568/4/6
f 568/4/6 560/4/6 569/4/6
f 550/3/6 563/3/6 570/3/6
f 563/3/6 564/3/6 570/3/6
f 564/3/6 553/3/6 571/3/6
f 570/3/6 564/3/6 571/3/6
f 554/3/6 555/3/6 572/3/6
f 567/3/6 568/3/6 573/3/6
f 573/3/6 568/3/6 574/3/6
f 561/3/6 562/3/6 575/3/6
f 575/3/6 562/3/6 576/3/6
f 565/3/6 566/3/6 581/3/6
f 581/3/6 566/3/6 582/3/6
f 554/3/6 572/3/6 583/3/6
f 573/4/6 574/4/6 584/4/6
f 584/4/6 574/4/6 585/4/6
f 576/3/6 577/3/6 586/3/6
f 586/3/6 577/3/6 587/3/6
f 580/3/6 581/3/6 590/3/6
f 590/3/6 581/3/6 591/3/6
f 554/3/6 583/3/6 593/3/6
f 593/3/6 583/3/6 594/3/6
f 587/3/6 588/3/6 595/3/6
f 595/3/6 588/3/6 596/3/6
f 578/3/6 579/3/6 597/3/6
f 597/3/6 579/3/6 598/3/6
f 589/3/6 590/3/6 599/3/6
f 599/3/6 590/3/6 600/3/6
f 592/4/6 593/4/6 601/4/6
f 601/4/6 593/4/6 602/4/6
f 596/3/6 597/3/6 604/3/6
f 604/3/6 597/3/6 605/3/6
f 598/3/6 599/3/6 606/3/6
f 606/3/6 599/3/6 607/3/6
f 605/3/6 606/3/6 608/3/6
f 608/3/6 606/3/6 609/3/6
f 602/3/6 603/3/6 610/3/6
f 584/3/6 585/3/6 611/3/6
f 611/3/6 585/3/6 612/3/6
f 602/3/6 610/3/6 613/3/6
f 611/4/6 612/4/6 614/4/6
f 614/4/6 612/4/6 615/4/6
f 602/3/6 613/3/6 617/3/6
f 617/3/6 613/3/6 618/3/6
f 614/3/6 615/3/6 619/3/6
f 619/3/6 615/3/6 620/3/6
f 616/4/6 617/4/6 622/4/6
f 622/4/6 617/4/6 623/4/6
f 620/4/6 621/4/6 626/4/6
f 626/4/6 621/4/6 627/4/6
f 623/4/6 624/4/6 628/4/6
f 628/4/6 624/4/6 629/4/6
f 625/4/6 626/4/6 630/4/6
f 630/4/6 626/4/6 631/4/6
f 629/4/6 630/4/6 632/4/6
f 632/4/6 630/4/6 633/4/6
f 634/4/6 635/4/6 638/4/6
f 638/4/6 635/4/6 639/4/6
f 636/3/6 637/3/6 640/3/6
f 640/3/6 637/3/6 641/3/6
f 640/4/6 641/4/6 642/4/6
f 642/4/6 641/4/6 643/4/6
f 642/3/6 643/3/6 645/3/6
f 644/4/6 645/4/6 646/4/6
f 645/3/6 643/3/6 647/3/6
f 646/4/6 645/4/6 647/4/6
f 647/3/6 643/3/6 648/3/6
f 648/3/6 643/3/6 649/3/6
f 648/4/6 649/4/6 650/4/6
f 650/4/6 649/4/6 651/4/6
f 650/3/6 651/3/6 653/3/6
f 653/3/6 651/3/6 654/3/6
f 653/4/6 654/4/6 656/4/6
f 654/4/6 655/4/6 656/4/6
f 652/4/6 653/4/6 656/4/6
f 656/4/6 655/4/6 657/4/6
f 657/4/6 655/4/6 658/4/6
f 658/4/6 655/4/6 659/4/6
f 657/4/6 658/4/6 660/4/6
f 660/4/6 658/4/6 661/4/6
