# MagicaVoxel @ Ephtracy

# group
o 

# material
mtllib New energy.vox-0.mtl
usemtl palette

# normals
vn -1 0 0
vn 1 0 0
vn 0 0 1
vn 0 0 -1
vn 0 -1 0
vn 0 1 0

# texcoords
vt 0.970703 0.5
vt 0.974609 0.5
vt 0.982422 0.5

# verts
v -2 0 1.7
v -2 0 1.6
v -2 0 1.5
v -2 0 1.4
v -2 0 1.3
v -2 0.1 1.7
v -2 0.1 1.6
v -2 0.1 1.5
v -2 0.1 1.4
v -2 0.1 1.3
v -1.9 0 2
v -1.9 0 1.9
v -1.9 0.1 2
v -1.9 0.1 1.9
v -1.7 0 1.9
v -1.7 0 1.7
v -1.7 0.1 1.9
v -1.7 0.1 1.7
v -1.5 0.1 1.5
v -1.5 0.1 1.4
v -1.5 0.2 1.5
v -1.5 0.2 1.4
v -1.4 0.1 1.4
v -1.4 0.1 1.3
v -1.4 0.2 1.4
v -1.4 0.2 1.3
v -1.3 0 1.3
v -1.3 0 1.2
v -1.3 0.2 1.3
v -1.3 0.2 1.2
v -1.2 0 2
v -1.2 0 1.9
v -1.2 0 1.2
v -1.2 0 1.1
v -1.2 0.1 2
v -1.2 0.1 1.9
v -1.2 0.2 1.2
v -1.2 0.2 1.1
v -1.1 0 1.9
v -1.1 0 1.7
v -1.1 0 1.1
v -1.1 0 1
v -1.1 0.1 2
v -1.1 0.1 1.9
v -1.1 0.1 1.8
v -1.1 0.1 1.7
v -1.1 0.2 2
v -1.1 0.2 1.8
v -1.1 0.2 1.1
v -1.1 0.2 1
v -1 0 1.7
v -1 0 1.1
v -1 0 1
v -1 0 0.4
v -1 0.1 1.8
v -1 0.1 1.7
v -1 0.1 0.5
v -1 0.1 0.4
v -1 0.2 2
v -1 0.2 1.8
v -1 0.2 1.1
v -1 0.2 1
v -1 0.2 0.5
v -1 0.3 2
v -1 0.3 1.1
v -1 0.3 1
v -0.8 0 1.2
v -0.8 0 1.1
v -0.8 0.2 1.2
v -0.8 0.2 1.1
v -0.7 0 1.3
v -0.7 0 1.2
v -0.7 0.2 1.3
v -0.7 0.2 1.2
v -0.6 0 1.4
v -0.6 0 1.3
v -0.6 0.2 1.4
v -0.6 0.2 1.3
v -0.5 0 1.5
v -0.5 0 1.4
v -0.5 0.2 1.5
v -0.5 0.2 1.4
v -1.5 0 1.9
v -1.5 0 1.7
v -1.5 0.1 1.9
v -1.5 0.1 1.7
v -1.4 0.1 1.5
v -1.4 0.1 1.4
v -1.4 0.2 1.5
v -1.4 0.2 1.4
v -1.3 0 2
v -1.3 0 1.9
v -1.3 0.1 2
v -1.3 0.1 1.9
v -1.3 0.1 1.4
v -1.3 0.1 1.3
v -1.3 0.2 1.4
v -1.3 0.2 1.3
v -1.2 0 1.7
v -1.2 0 1.6
v -1.2 0 1.5
v -1.2 0 1.4
v -1.2 0 1.3
v -1.2 0 1.2
v -1.2 0.1 1.7
v -1.2 0.1 1.6
v -1.2 0.1 1.5
v -1.2 0.1 1.4
v -1.2 0.1 1.3
v -1.2 0.2 1.3
v -1.2 0.2 1.2
v -1.1 0 1.2
v -1.1 0 1.1
v -1.1 0.2 1.2
v -1.1 0.2 1.1
v -0.9 0 1.7
v -0.9 0 1.1
v -0.9 0 1
v -0.9 0 0.4
v -0.9 0.1 1.8
v -0.9 0.1 1.7
v -0.9 0.1 0.5
v -0.9 0.1 0.4
v -0.9 0.2 2
v -0.9 0.2 1.8
v -0.9 0.2 1.1
v -0.9 0.2 1
v -0.9 0.2 0.5
v -0.9 0.3 2
v -0.9 0.3 1.1
v -0.9 0.3 1
v -0.8 0 1.9
v -0.8 0 1.7
v -0.8 0 1.1
v -0.8 0 1
v -0.8 0.1 2
v -0.8 0.1 1.9
v -0.8 0.1 1.8
v -0.8 0.1 1.7
v -0.8 0.2 2
v -0.8 0.2 1.8
v -0.8 0.2 1.1
v -0.8 0.2 1
v -0.7 0 2
v -0.7 0 1.9
v -0.7 0 1.2
v -0.7 0 1.1
v -0.7 0.1 2
v -0.7 0.1 1.9
v -0.7 0.2 1.2
v -0.7 0.2 1.1
v -0.6 0 1.3
v -0.6 0 1.2
v -0.6 0.2 1.3
v -0.6 0.2 1.2
v -0.5 0 1.4
v -0.5 0 1.3
v -0.5 0.2 1.4
v -0.5 0.2 1.3
v -0.4 0 1.5
v -0.4 0 1.4
v -0.4 0.2 1.5
v -0.4 0.2 1.4
v -1.9 0 2
v -1.9 0.1 2
v -1.3 0 2
v -1.3 0.1 2
v -1.2 0 2
v -1.2 0.1 2
v -1.1 0.1 2
v -1.1 0.2 2
v -1 0.2 2
v -1 0.3 2
v -0.9 0.2 2
v -0.9 0.3 2
v -0.8 0.1 2
v -0.8 0.2 2
v -0.7 0 2
v -0.7 0.1 2
v -2 0 1.7
v -2 0.1 1.7
v -1.9 0 1.7
v -1.9 0.1 1.7
v -1.8 0 1.7
v -1.8 0.1 1.7
v -1.7 0 1.7
v -1.7 0.1 1.7
v -1.5 0 1.7
v -1.5 0.1 1.7
v -1.4 0 1.7
v -1.4 0.1 1.7
v -1.3 0 1.7
v -1.3 0.1 1.7
v -1.2 0 1.7
v -1.2 0.1 1.7
v -1.5 0.1 1.5
v -1.5 0.2 1.5
v -1.4 0.1 1.5
v -1.4 0.2 1.5
v -0.5 0 1.5
v -0.5 0.2 1.5
v -0.4 0 1.5
v -0.4 0.2 1.5
v -1.4 0.1 1.4
v -1.4 0.2 1.4
v -1.3 0.1 1.4
v -1.3 0.2 1.4
v -0.6 0 1.4
v -0.6 0.2 1.4
v -0.5 0 1.4
v -0.5 0.2 1.4
v -1.3 0.1 1.3
v -1.3 0.2 1.3
v -1.2 0.1 1.3
v -1.2 0.2 1.3
v -0.7 0 1.3
v -0.7 0.2 1.3
v -0.6 0 1.3
v -0.6 0.2 1.3
v -1.2 0 1.2
v -1.2 0.2 1.2
v -1.1 0 1.2
v -1.1 0.2 1.2
v -0.8 0 1.2
v -0.8 0.2 1.2
v -0.7 0 1.2
v -0.7 0.2 1.2
v -1.1 0 1.1
v -1.1 0.2 1.1
v -1 0 1.1
v -1 0.2 1.1
v -0.9 0 1.1
v -0.9 0.2 1.1
v -0.8 0 1.1
v -0.8 0.2 1.1
v -1.9 0 1.9
v -1.9 0.1 1.9
v -1.7 0 1.9
v -1.7 0.1 1.9
v -1.5 0 1.9
v -1.5 0.1 1.9
v -1.3 0 1.9
v -1.3 0.1 1.9
v -1.2 0 1.9
v -1.2 0.1 1.9
v -1.1 0 1.9
v -1.1 0.1 1.9
v -0.8 0 1.9
v -0.8 0.1 1.9
v -0.7 0 1.9
v -0.7 0.1 1.9
v -1.1 0.1 1.8
v -1.1 0.2 1.8
v -1 0.1 1.8
v -1 0.2 1.8
v -0.9 0.1 1.8
v -0.9 0.2 1.8
v -0.8 0.1 1.8
v -0.8 0.2 1.8
v -1.1 0 1.7
v -1.1 0.1 1.7
v -1 0 1.7
v -1 0.1 1.7
v -0.9 0 1.7
v -0.9 0.1 1.7
v -0.8 0 1.7
v -0.8 0.1 1.7
v -1.5 0.1 1.4
v -1.5 0.2 1.4
v -1.4 0.1 1.4
v -1.4 0.2 1.4
v -0.5 0 1.4
v -0.5 0.2 1.4
v -0.4 0 1.4
v -0.4 0.2 1.4
v -2 0 1.3
v -2 0.1 1.3
v -1.9 0 1.3
v -1.9 0.1 1.3
v -1.8 0 1.3
v -1.8 0.1 1.3
v -1.7 0 1.3
v -1.7 0.1 1.3
v -1.6 0 1.3
v -1.6 0.1 1.3
v -1.5 0 1.3
v -1.5 0.1 1.3
v -1.4 0 1.3
v -1.4 0.1 1.3
v -1.4 0.2 1.3
v -1.3 0 1.3
v -1.3 0.2 1.3
v -0.6 0 1.3
v -0.6 0.2 1.3
v -0.5 0 1.3
v -0.5 0.2 1.3
v -1.3 0 1.2
v -1.3 0.2 1.2
v -1.2 0 1.2
v -1.2 0.2 1.2
v -0.7 0 1.2
v -0.7 0.2 1.2
v -0.6 0 1.2
v -0.6 0.2 1.2
v -1.2 0 1.1
v -1.2 0.2 1.1
v -1.1 0 1.1
v -1.1 0.2 1.1
v -0.8 0 1.1
v -0.8 0.2 1.1
v -0.7 0 1.1
v -0.7 0.2 1.1
v -1.1 0 1
v -1.1 0.2 1
v -1 0 1
v -1 0.2 1
v -1 0.3 1
v -0.9 0 1
v -0.9 0.2 1
v -0.9 0.3 1
v -0.8 0 1
v -0.8 0.2 1
v -1 0.1 0.5
v -1 0.2 0.5
v -0.9 0.1 0.5
v -0.9 0.2 0.5
v -1 0 0.4
v -1 0.1 0.4
v -0.9 0 0.4
v -0.9 0.1 0.4
v -1.9 0 2
v -1.3 0 2
v -1.2 0 2
v -0.7 0 2
v -1.9 0 1.9
v -1.7 0 1.9
v -1.5 0 1.9
v -1.3 0 1.9
v -1.2 0 1.9
v -1.1 0 1.9
v -0.8 0 1.9
v -0.7 0 1.9
v -2 0 1.7
v -1.9 0 1.7
v -1.8 0 1.7
v -1.7 0 1.7
v -1.6 0 1.7
v -1.5 0 1.7
v -1.4 0 1.7
v -1.3 0 1.7
v -1.2 0 1.7
v -1.1 0 1.7
v -1 0 1.7
v -0.9 0 1.7
v -0.8 0 1.7
v -2 0 1.6
v -1.9 0 1.6
v -1.8 0 1.6
v -1.7 0 1.6
v -1.6 0 1.6
v -1.5 0 1.6
v -1.4 0 1.6
v -1.3 0 1.6
v -1.2 0 1.6
v -2 0 1.5
v -1.9 0 1.5
v -1.8 0 1.5
v -1.7 0 1.5
v -1.6 0 1.5
v -1.5 0 1.5
v -1.4 0 1.5
v -1.3 0 1.5
v -1.2 0 1.5
v -0.5 0 1.5
v -0.4 0 1.5
v -2 0 1.4
v -1.9 0 1.4
v -1.8 0 1.4
v -1.7 0 1.4
v -1.6 0 1.4
v -1.5 0 1.4
v -1.4 0 1.4
v -1.3 0 1.4
v -1.2 0 1.4
v -0.6 0 1.4
v -0.5 0 1.4
v -0.4 0 1.4
v -2 0 1.3
v -1.9 0 1.3
v -1.8 0 1.3
v -1.7 0 1.3
v -1.6 0 1.3
v -1.5 0 1.3
v -1.4 0 1.3
v -1.3 0 1.3
v -1.2 0 1.3
v -0.7 0 1.3
v -0.6 0 1.3
v -0.5 0 1.3
v -1.3 0 1.2
v -1.2 0 1.2
v -1.1 0 1.2
v -0.8 0 1.2
v -0.7 0 1.2
v -0.6 0 1.2
v -1.2 0 1.1
v -1.1 0 1.1
v -1 0 1.1
v -0.9 0 1.1
v -0.8 0 1.1
v -0.7 0 1.1
v -1.1 0 1
v -1 0 1
v -0.9 0 1
v -0.8 0 1
v -1 0 0.4
v -0.9 0 0.4
v -1.9 0.1 2
v -1.3 0.1 2
v -1.2 0.1 2
v -1.1 0.1 2
v -0.8 0.1 2
v -0.7 0.1 2
v -1.9 0.1 1.9
v -1.7 0.1 1.9
v -1.5 0.1 1.9
v -1.3 0.1 1.9
v -1.2 0.1 1.9
v -1.1 0.1 1.9
v -0.8 0.1 1.9
v -0.7 0.1 1.9
v -1.1 0.1 1.8
v -1 0.1 1.8
v -0.9 0.1 1.8
v -0.8 0.1 1.8
v -2 0.1 1.7
v -1.9 0.1 1.7
v -1.8 0.1 1.7
v -1.7 0.1 1.7
v -1.6 0.1 1.7
v -1.5 0.1 1.7
v -1.4 0.1 1.7
v -1.3 0.1 1.7
v -1.2 0.1 1.7
v -1.1 0.1 1.7
v -1 0.1 1.7
v -0.9 0.1 1.7
v -0.8 0.1 1.7
v -2 0.1 1.6
v -1.9 0.1 1.6
v -1.8 0.1 1.6
v -1.7 0.1 1.6
v -1.6 0.1 1.6
v -1.5 0.1 1.6
v -1.4 0.1 1.6
v -1.3 0.1 1.6
v -1.2 0.1 1.6
v -2 0.1 1.5
v -1.9 0.1 1.5
v -1.8 0.1 1.5
v -1.7 0.1 1.5
v -1.6 0.1 1.5
v -1.5 0.1 1.5
v -1.4 0.1 1.5
v -1.3 0.1 1.5
v -1.2 0.1 1.5
v -2 0.1 1.4
v -1.9 0.1 1.4
v -1.8 0.1 1.4
v -1.7 0.1 1.4
v -1.6 0.1 1.4
v -1.5 0.1 1.4
v -1.4 0.1 1.4
v -1.3 0.1 1.4
v -1.2 0.1 1.4
v -2 0.1 1.3
v -1.9 0.1 1.3
v -1.8 0.1 1.3
v -1.7 0.1 1.3
v -1.6 0.1 1.3
v -1.5 0.1 1.3
v -1.4 0.1 1.3
v -1.3 0.1 1.3
v -1.2 0.1 1.3
v -1 0.1 0.5
v -0.9 0.1 0.5
v -1 0.1 0.4
v -0.9 0.1 0.4
v -1.1 0.2 2
v -1 0.2 2
v -0.9 0.2 2
v -0.8 0.2 2
v -1.1 0.2 1.8
v -1 0.2 1.8
v -0.9 0.2 1.8
v -0.8 0.2 1.8
v -1.5 0.2 1.5
v -1.4 0.2 1.5
v -0.5 0.2 1.5
v -0.4 0.2 1.5
v -1.5 0.2 1.4
v -1.4 0.2 1.4
v -1.3 0.2 1.4
v -0.6 0.2 1.4
v -0.5 0.2 1.4
v -0.4 0.2 1.4
v -1.4 0.2 1.3
v -1.3 0.2 1.3
v -1.2 0.2 1.3
v -0.7 0.2 1.3
v -0.6 0.2 1.3
v -0.5 0.2 1.3
v -1.3 0.2 1.2
v -1.2 0.2 1.2
v -1.1 0.2 1.2
v -0.8 0.2 1.2
v -0.7 0.2 1.2
v -0.6 0.2 1.2
v -1.2 0.2 1.1
v -1.1 0.2 1.1
v -1 0.2 1.1
v -0.9 0.2 1.1
v -0.8 0.2 1.1
v -0.7 0.2 1.1
v -1.1 0.2 1
v -1 0.2 1
v -0.9 0.2 1
v -0.8 0.2 1
v -1 0.2 0.5
v -0.9 0.2 0.5
v -1 0.3 2
v -0.9 0.3 2
v -1 0.3 1.1
v -0.9 0.3 1.1
v -1 0.3 1
v -0.9 0.3 1

# faces
f 6/2/1 2/2/1 1/2/1
f 7/3/1 3/3/1 2/3/1
f 7/2/1 2/2/1 6/2/1
f 8/2/1 4/2/1 3/2/1
f 8/3/1 3/3/1 7/3/1
f 9/3/1 5/3/1 4/3/1
f 9/2/1 4/2/1 8/2/1
f 10/3/1 5/3/1 9/3/1
f 13/2/1 12/2/1 11/2/1
f 14/2/1 12/2/1 13/2/1
f 17/2/1 16/2/1 15/2/1
f 18/2/1 16/2/1 17/2/1
f 21/1/1 20/1/1 19/1/1
f 22/1/1 20/1/1 21/1/1
f 25/1/1 24/1/1 23/1/1
f 26/1/1 24/1/1 25/1/1
f 29/1/1 28/1/1 27/1/1
f 30/1/1 28/1/1 29/1/1
f 35/1/1 32/1/1 31/1/1
f 36/1/1 32/1/1 35/1/1
f 37/1/1 34/1/1 33/1/1
f 38/1/1 34/1/1 37/1/1
f 44/1/1 40/1/1 39/1/1
f 45/1/1 40/1/1 44/1/1
f 46/1/1 40/1/1 45/1/1
f 47/1/1 44/1/1 43/1/1
f 47/1/1 45/1/1 44/1/1
f 48/1/1 45/1/1 47/1/1
f 49/1/1 42/1/1 41/1/1
f 50/1/1 42/1/1 49/1/1
f 56/1/1 52/1/1 51/1/1
f 57/1/1 54/1/1 53/1/1
f 58/1/1 54/1/1 57/1/1
f 60/1/1 56/1/1 55/1/1
f 61/1/1 52/1/1 56/1/1
f 61/1/1 56/1/1 60/1/1
f 62/1/1 57/1/1 53/1/1
f 63/1/1 57/1/1 62/1/1
f 64/1/1 60/1/1 59/1/1
f 64/1/1 61/1/1 60/1/1
f 65/3/1 62/3/1 61/3/1
f 65/1/1 61/1/1 64/1/1
f 66/3/1 62/3/1 65/3/1
f 69/1/1 68/1/1 67/1/1
f 70/1/1 68/1/1 69/1/1
f 73/1/1 72/1/1 71/1/1
f 74/1/1 72/1/1 73/1/1
f 77/1/1 76/1/1 75/1/1
f 78/1/1 76/1/1 77/1/1
f 81/1/1 80/1/1 79/1/1
f 82/1/1 80/1/1 81/1/1
f 83/2/2 84/2/2 85/2/2
f 85/2/2 84/2/2 86/2/2
f 87/1/2 88/1/2 89/1/2
f 89/1/2 88/1/2 90/1/2
f 91/2/2 92/2/2 93/2/2
f 93/2/2 92/2/2 94/2/2
f 95/1/2 96/1/2 97/1/2
f 97/1/2 96/1/2 98/1/2
f 99/3/2 100/3/2 105/3/2
f 100/2/2 101/2/2 106/2/2
f 105/3/2 100/3/2 106/3/2
f 101/3/2 102/3/2 107/3/2
f 106/2/2 101/2/2 107/2/2
f 102/2/2 103/2/2 108/2/2
f 107/3/2 102/3/2 108/3/2
f 103/1/2 104/1/2 109/1/2
f 108/2/2 103/2/2 109/2/2
f 109/1/2 104/1/2 110/1/2
f 110/1/2 104/1/2 111/1/2
f 112/1/2 113/1/2 114/1/2
f 114/1/2 113/1/2 115/1/2
f 116/1/2 117/1/2 121/1/2
f 118/1/2 119/1/2 122/1/2
f 122/1/2 119/1/2 123/1/2
f 120/1/2 121/1/2 125/1/2
f 121/1/2 117/1/2 126/1/2
f 125/1/2 121/1/2 126/1/2
f 118/1/2 122/1/2 127/1/2
f 127/1/2 122/1/2 128/1/2
f 124/1/2 125/1/2 129/1/2
f 125/1/2 126/1/2 129/1/2
f 126/3/2 127/3/2 130/3/2
f 129/1/2 126/1/2 130/1/2
f 130/3/2 127/3/2 131/3/2
f 132/1/2 133/1/2 137/1/2
f 137/1/2 133/1/2 138/1/2
f 138/1/2 133/1/2 139/1/2
f 136/1/2 137/1/2 140/1/2
f 137/1/2 138/1/2 140/1/2
f 140/1/2 138/1/2 141/1/2
f 134/1/2 135/1/2 142/1/2
f 142/1/2 135/1/2 143/1/2
f 144/1/2 145/1/2 148/1/2
f 148/1/2 145/1/2 149/1/2
f 146/1/2 147/1/2 150/1/2
f 150/1/2 147/1/2 151/1/2
f 152/1/2 153/1/2 154/1/2
f 154/1/2 153/1/2 155/1/2
f 156/1/2 157/1/2 158/1/2
f 158/1/2 157/1/2 159/1/2
f 160/1/2 161/1/2 162/1/2
f 162/1/2 161/1/2 163/1/2
f 166/2/3 165/2/3 164/2/3
f 167/2/3 165/2/3 166/2/3
f 170/1/3 169/1/3 168/1/3
f 172/1/3 171/1/3 170/1/3
f 174/1/3 172/1/3 170/1/3
f 174/1/3 173/1/3 172/1/3
f 175/1/3 173/1/3 174/1/3
f 176/1/3 170/1/3 168/1/3
f 176/1/3 174/1/3 170/1/3
f 177/1/3 174/1/3 176/1/3
f 178/1/3 176/1/3 168/1/3
f 179/1/3 176/1/3 178/1/3
f 182/2/3 181/2/3 180/2/3
f 183/2/3 181/2/3 182/2/3
f 184/3/3 183/3/3 182/3/3
f 185/3/3 183/3/3 184/3/3
f 186/2/3 185/2/3 184/2/3
f 187/2/3 185/2/3 186/2/3
f 190/3/3 189/3/3 188/3/3
f 191/3/3 189/3/3 190/3/3
f 192/2/3 191/2/3 190/2/3
f 193/2/3 191/2/3 192/2/3
f 194/3/3 193/3/3 192/3/3
f 195/3/3 193/3/3 194/3/3
f 198/1/3 197/1/3 196/1/3
f 199/1/3 197/1/3 198/1/3
f 202/1/3 201/1/3 200/1/3
f 203/1/3 201/1/3 202/1/3
f 206/1/3 205/1/3 204/1/3
f 207/1/3 205/1/3 206/1/3
f 210/1/3 209/1/3 208/1/3
f 211/1/3 209/1/3 210/1/3
f 214/1/3 213/1/3 212/1/3
f 215/1/3 213/1/3 214/1/3
f 218/1/3 217/1/3 216/1/3
f 219/1/3 217/1/3 218/1/3
f 222/1/3 221/1/3 220/1/3
f 223/1/3 221/1/3 222/1/3
f 226/1/3 225/1/3 224/1/3
f 227/1/3 225/1/3 226/1/3
f 230/1/3 229/1/3 228/1/3
f 231/1/3 229/1/3 230/1/3
f 234/1/3 233/1/3 232/1/3
f 235/1/3 233/1/3 234/1/3
f 236/2/4 237/2/4 238/2/4
f 238/2/4 237/2/4 239/2/4
f 240/2/4 241/2/4 242/2/4
f 242/2/4 241/2/4 243/2/4
f 244/1/4 245/1/4 246/1/4
f 246/1/4 245/1/4 247/1/4
f 248/1/4 249/1/4 250/1/4
f 250/1/4 249/1/4 251/1/4
f 252/1/4 253/1/4 254/1/4
f 254/1/4 253/1/4 255/1/4
f 256/1/4 257/1/4 258/1/4
f 258/1/4 257/1/4 259/1/4
f 260/1/4 261/1/4 262/1/4
f 262/1/4 261/1/4 263/1/4
f 264/1/4 265/1/4 266/1/4
f 266/1/4 265/1/4 267/1/4
f 268/1/4 269/1/4 270/1/4
f 270/1/4 269/1/4 271/1/4
f 272/1/4 273/1/4 274/1/4
f 274/1/4 273/1/4 275/1/4
f 276/3/4 277/3/4 278/3/4
f 278/3/4 277/3/4 279/3/4
f 278/2/4 279/2/4 280/2/4
f 280/2/4 279/2/4 281/2/4
f 280/3/4 281/3/4 282/3/4
f 282/3/4 281/3/4 283/3/4
f 282/2/4 283/2/4 284/2/4
f 284/2/4 283/2/4 285/2/4
f 284/3/4 285/3/4 286/3/4
f 286/3/4 285/3/4 287/3/4
f 286/2/4 287/2/4 288/2/4
f 288/2/4 287/2/4 289/2/4
f 288/1/4 289/1/4 291/1/4
f 289/1/4 290/1/4 291/1/4
f 291/1/4 290/1/4 292/1/4
f 293/1/4 294/1/4 295/1/4
f 295/1/4 294/1/4 296/1/4
f 297/1/4 298/1/4 299/1/4
f 299/1/4 298/1/4 300/1/4
f 301/1/4 302/1/4 303/1/4
f 303/1/4 302/1/4 304/1/4
f 305/1/4 306/1/4 307/1/4
f 307/1/4 306/1/4 308/1/4
f 309/1/4 310/1/4 311/1/4
f 311/1/4 310/1/4 312/1/4
f 313/1/4 314/1/4 315/1/4
f 315/1/4 314/1/4 316/1/4
f 316/3/4 317/3/4 319/3/4
f 319/3/4 317/3/4 320/3/4
f 318/1/4 319/1/4 321/1/4
f 321/1/4 319/1/4 322/1/4
f 323/1/4 324/1/4 325/1/4
f 325/1/4 324/1/4 326/1/4
f 327/1/4 328/1/4 329/1/4
f 329/1/4 328/1/4 330/1/4
f 335/2/5 332/2/5 331/2/5
f 336/2/5 332/2/5 335/2/5
f 337/2/5 332/2/5 336/2/5
f 338/2/5 332/2/5 337/2/5
f 339/1/5 334/1/5 333/1/5
f 340/1/5 334/1/5 339/1/5
f 341/1/5 334/1/5 340/1/5
f 342/1/5 334/1/5 341/1/5
f 346/2/5 337/2/5 336/2/5
f 347/2/5 337/2/5 346/2/5
f 348/2/5 337/2/5 347/2/5
f 352/1/5 341/1/5 340/1/5
f 353/1/5 341/1/5 352/1/5
f 354/1/5 341/1/5 353/1/5
f 355/1/5 341/1/5 354/1/5
f 356/2/5 344/2/5 343/2/5
f 357/3/5 345/3/5 344/3/5
f 357/2/5 344/2/5 356/2/5
f 358/2/5 346/2/5 345/2/5
f 358/3/5 345/3/5 357/3/5
f 359/3/5 347/3/5 346/3/5
f 359/2/5 346/2/5 358/2/5
f 360/2/5 348/2/5 347/2/5
f 360/3/5 347/3/5 359/3/5
f 361/3/5 349/3/5 348/3/5
f 361/2/5 348/2/5 360/2/5
f 362/2/5 350/2/5 349/2/5
f 362/3/5 349/3/5 361/3/5
f 363/3/5 351/3/5 350/3/5
f 363/2/5 350/2/5 362/2/5
f 364/3/5 351/3/5 363/3/5
f 365/3/5 357/3/5 356/3/5
f 366/2/5 358/2/5 357/2/5
f 366/3/5 357/3/5 365/3/5
f 367/3/5 359/3/5 358/3/5
f 367/2/5 358/2/5 366/2/5
f 368/2/5 360/2/5 359/2/5
f 368/3/5 359/3/5 367/3/5
f 369/3/5 361/3/5 360/3/5
f 369/2/5 360/2/5 368/2/5
f 370/2/5 362/2/5 361/2/5
f 370/3/5 361/3/5 369/3/5
f 371/3/5 363/3/5 362/3/5
f 371/2/5 362/2/5 370/2/5
f 372/2/5 364/2/5 363/2/5
f 372/3/5 363/3/5 371/3/5
f 373/2/5 364/2/5 372/2/5
f 376/2/5 366/2/5 365/2/5
f 377/3/5 367/3/5 366/3/5
f 377/2/5 366/2/5 376/2/5
f 378/2/5 368/2/5 367/2/5
f 378/3/5 367/3/5 377/3/5
f 379/3/5 369/3/5 368/3/5
f 379/2/5 368/2/5 378/2/5
f 380/2/5 370/2/5 369/2/5
f 380/3/5 369/3/5 379/3/5
f 381/1/5 371/1/5 370/1/5
f 381/2/5 370/2/5 380/2/5
f 382/2/5 372/2/5 371/2/5
f 382/1/5 371/1/5 381/1/5
f 383/3/5 373/3/5 372/3/5
f 383/2/5 372/2/5 382/2/5
f 384/3/5 373/3/5 383/3/5
f 386/1/5 375/1/5 374/1/5
f 387/1/5 375/1/5 386/1/5
f 388/3/5 377/3/5 376/3/5
f 389/2/5 378/2/5 377/2/5
f 389/3/5 377/3/5 388/3/5
f 390/3/5 379/3/5 378/3/5
f 390/2/5 378/2/5 389/2/5
f 391/2/5 380/2/5 379/2/5
f 391/3/5 379/3/5 390/3/5
f 392/3/5 381/3/5 380/3/5
f 392/2/5 380/2/5 391/2/5
f 393/2/5 382/2/5 381/2/5
f 393/3/5 381/3/5 392/3/5
f 394/1/5 383/1/5 382/1/5
f 394/2/5 382/2/5 393/2/5
f 395/2/5 384/2/5 383/2/5
f 395/1/5 383/1/5 394/1/5
f 396/2/5 384/2/5 395/2/5
f 398/1/5 386/1/5 385/1/5
f 399/1/5 386/1/5 398/1/5
f 400/1/5 396/1/5 395/1/5
f 401/1/5 396/1/5 400/1/5
f 404/1/5 398/1/5 397/1/5
f 405/1/5 398/1/5 404/1/5
f 406/1/5 402/1/5 401/1/5
f 407/1/5 402/1/5 406/1/5
f 408/1/5 354/1/5 353/1/5
f 409/1/5 354/1/5 408/1/5
f 410/1/5 404/1/5 403/1/5
f 411/1/5 404/1/5 410/1/5
f 412/1/5 409/1/5 408/1/5
f 412/1/5 410/1/5 409/1/5
f 412/1/5 408/1/5 407/1/5
f 413/1/5 410/1/5 412/1/5
f 414/1/5 410/1/5 413/1/5
f 415/1/5 410/1/5 414/1/5
f 416/1/5 414/1/5 413/1/5
f 417/1/5 414/1/5 416/1/5
f 418/2/6 419/2/6 424/2/6
f 424/2/6 419/2/6 425/2/6
f 425/2/6 419/2/6 426/2/6
f 426/2/6 419/2/6 427/2/6
f 420/1/6 421/1/6 428/1/6
f 428/1/6 421/1/6 429/1/6
f 422/1/6 423/1/6 430/1/6
f 430/1/6 423/1/6 431/1/6
f 425/2/6 426/2/6 439/2/6
f 439/2/6 426/2/6 440/2/6
f 440/2/6 426/2/6 441/2/6
f 432/1/6 433/1/6 445/1/6
f 445/1/6 433/1/6 446/1/6
f 434/1/6 435/1/6 447/1/6
f 447/1/6 435/1/6 448/1/6
f 436/2/6 437/2/6 449/2/6
f 437/3/6 438/3/6 450/3/6
f 449/2/6 437/2/6 450/2/6
f 438/2/6 439/2/6 451/2/6
f 450/3/6 438/3/6 451/3/6
f 439/3/6 440/3/6 452/3/6
f 451/2/6 439/2/6 452/2/6
f 440/2/6 441/2/6 453/2/6
f 452/3/6 440/3/6 453/3/6
f 441/3/6 442/3/6 454/3/6
f 453/2/6 441/2/6 454/2/6
f 442/2/6 443/2/6 455/2/6
f 454/3/6 442/3/6 455/3/6
f 443/3/6 444/3/6 456/3/6
f 455/2/6 443/2/6 456/2/6
f 456/3/6 444/3/6 457/3/6
f 449/3/6 450/3/6 458/3/6
f 450/2/6 451/2/6 459/2/6
f 458/3/6 450/3/6 459/3/6
f 451/3/6 452/3/6 460/3/6
f 459/2/6 451/2/6 460/2/6
f 452/2/6 453/2/6 461/2/6
f 460/3/6 452/3/6 461/3/6
f 453/3/6 454/3/6 462/3/6
f 461/2/6 453/2/6 462/2/6
f 454/2/6 455/2/6 463/2/6
f 462/3/6 454/3/6 463/3/6
f 455/3/6 456/3/6 464/3/6
f 463/2/6 455/2/6 464/2/6
f 456/2/6 457/2/6 465/2/6
f 464/3/6 456/3/6 465/3/6
f 465/2/6 457/2/6 466/2/6
f 458/2/6 459/2/6 467/2/6
f 459/3/6 460/3/6 468/3/6
f 467/2/6 459/2/6 468/2/6
f 460/2/6 461/2/6 469/2/6
f 468/3/6 460/3/6 469/3/6
f 461/3/6 462/3/6 470/3/6
f 469/2/6 461/2/6 470/2/6
f 462/2/6 463/2/6 471/2/6
f 470/3/6 462/3/6 471/3/6
f 471/2/6 463/2/6 472/2/6
f 464/2/6 465/2/6 473/2/6
f 465/3/6 466/3/6 474/3/6
f 473/2/6 465/2/6 474/2/6
f 474/3/6 466/3/6 475/3/6
f 467/3/6 468/3/6 476/3/6
f 468/2/6 469/2/6 477/2/6
f 476/3/6 468/3/6 477/3/6
f 469/3/6 470/3/6 478/3/6
f 477/2/6 469/2/6 478/2/6
f 470/2/6 471/2/6 479/2/6
f 478/3/6 470/3/6 479/3/6
f 471/3/6 472/3/6 480/3/6
f 479/2/6 471/2/6 480/2/6
f 472/2/6 473/2/6 481/2/6
f 480/3/6 472/3/6 481/3/6
f 481/2/6 473/2/6 482/2/6
f 474/2/6 475/2/6 483/2/6
f 483/2/6 475/2/6 484/2/6
f 485/1/6 486/1/6 487/1/6
f 487/1/6 486/1/6 488/1/6
f 489/1/6 490/1/6 493/1/6
f 493/1/6 490/1/6 494/1/6
f 491/1/6 492/1/6 495/1/6
f 495/1/6 492/1/6 496/1/6
f 497/1/6 498/1/6 501/1/6
f 501/1/6 498/1/6 502/1/6
f 499/1/6 500/1/6 505/1/6
f 505/1/6 500/1/6 506/1/6
f 502/1/6 503/1/6 507/1/6
f 507/1/6 503/1/6 508/1/6
f 504/1/6 505/1/6 511/1/6
f 511/1/6 505/1/6 512/1/6
f 508/1/6 509/1/6 513/1/6
f 513/1/6 509/1/6 514/1/6
f 510/1/6 511/1/6 517/1/6
f 517/1/6 511/1/6 518/1/6
f 514/1/6 515/1/6 519/1/6
f 519/1/6 515/1/6 520/1/6
f 516/1/6 517/1/6 523/1/6
f 523/1/6 517/1/6 524/1/6
f 520/1/6 521/1/6 525/1/6
f 525/1/6 521/1/6 526/1/6
f 522/1/6 523/1/6 527/1/6
f 527/1/6 523/1/6 528/1/6
f 526/1/6 527/1/6 529/1/6
f 529/1/6 527/1/6 530/1/6
f 531/1/6 532/1/6 533/1/6
f 533/1/6 532/1/6 534/1/6
f 533/3/6 534/3/6 535/3/6
f 535/3/6 534/3/6 536/3/6
