# MagicaVoxel @ Ephtracy

# group
o 

# material
mtllib Eletricity&heat.vox.mtl
usemtl palette

# normals
vn -1 0 0
vn 1 0 0
vn 0 0 1
vn 0 0 -1
vn 0 -1 0
vn 0 1 0

# texcoords
vt 0.970703 0.5
vt 0.982422 0.5

# verts
v -2 0 2
v -2 0 1.9
v -2 0.1 2
v -2 0.1 1.9
v -1.9 0 1.9
v -1.9 0 1.7
v -1.9 0.1 2
v -1.9 0.1 1.9
v -1.9 0.1 1.7
v -1.9 0.2 2
v -1.9 0.2 1.9
v -1.8 0 1.7
v -1.8 0 1.5
v -1.8 0 0.5
v -1.8 0 0.4
v -1.8 0.1 1.9
v -1.8 0.1 1.7
v -1.8 0.1 1.5
v -1.8 0.1 0.5
v -1.8 0.1 0.4
v -1.8 0.2 2
v -1.8 0.2 1.9
v -1.8 0.2 1.7
v -1.8 0.3 2
v -1.8 0.3 1.9
v -1.7 0 1.5
v -1.7 0 1.3
v -1.7 0 0.7
v -1.7 0 0.5
v -1.7 0.1 1.7
v -1.7 0.1 1.6
v -1.7 0.1 1.5
v -1.7 0.1 1.3
v -1.7 0.1 0.7
v -1.7 0.1 0.5
v -1.7 0.1 0.4
v -1.7 0.2 1.9
v -1.7 0.2 1.7
v -1.7 0.2 1.6
v -1.7 0.2 0.5
v -1.7 0.2 0.4
v -1.7 0.3 2
v -1.7 0.3 1.9
v -1.7 0.3 1.7
v -1.7 0.4 2
v -1.7 0.4 1.9
v -1.6 0 1.3
v -1.6 0 1.1
v -1.6 0 0.9
v -1.6 0 0.7
v -1.6 0.1 1.6
v -1.6 0.1 1.3
v -1.6 0.1 1.1
v -1.6 0.1 0.9
v -1.6 0.1 0.7
v -1.6 0.1 0.5
v -1.6 0.2 1.7
v -1.6 0.2 1.6
v -1.6 0.2 1.3
v -1.6 0.2 0.7
v -1.6 0.2 0.5
v -1.6 0.2 0.4
v -1.6 0.3 1.9
v -1.6 0.3 1.7
v -1.6 0.3 1.6
v -1.6 0.3 0.5
v -1.6 0.3 0.4
v -1.6 0.4 1.9
v -1.6 0.4 1.7
v -1.5 0 1.1
v -1.5 0 0.9
v -1.5 0.1 1.3
v -1.5 0.1 1.1
v -1.5 0.1 0.9
v -1.5 0.1 0.7
v -1.5 0.2 1.6
v -1.5 0.2 1.3
v -1.5 0.2 0.7
v -1.5 0.2 0.5
v -1.5 0.3 1.7
v -1.5 0.3 1.6
v -1.5 0.3 1.3
v -1.5 0.3 0.7
v -1.5 0.3 0.5
v -1.5 0.4 1.7
v -1.5 0.4 1.6
v -1.4 0.2 1.3
v -1.4 0.2 0.7
v -1.4 0.3 1.6
v -1.4 0.3 1.3
v -1.4 0.3 0.7
v -1.4 0.3 0.5
v -1.4 0.3 0.4
v -1.4 0.4 1.6
v -1.4 0.4 1.3
v -1.4 0.4 0.7
v -1.4 0.4 0.5
v -1.4 0.4 0.4
v -1.3 0.3 1.3
v -1.3 0.3 0.7
v -1.3 0.4 1.3
v -1.3 0.4 0.7
v -1.1 0.3 1.3
v -1.1 0.3 0.7
v -1.1 0.4 1.3
v -1.1 0.4 0.7
v -1 0.2 1.6
v -1 0.2 0.7
v -1 0.3 1.3
v -1 0.3 0.7
v -1 0.3 0.5
v -1 0.3 0.4
v -1 0.4 1.6
v -1 0.4 1.3
v -1 0.4 0.7
v -1 0.4 0.5
v -1 0.4 0.4
v -0.9 0 1.1
v -0.9 0 0.9
v -0.9 0.1 1.3
v -0.9 0.1 1.1
v -0.9 0.1 0.9
v -0.9 0.1 0.7
v -0.9 0.2 1.3
v -0.9 0.2 0.7
v -0.9 0.2 0.5
v -0.9 0.3 1.8
v -0.9 0.3 1.6
v -0.9 0.3 0.7
v -0.9 0.3 0.5
v -0.9 0.4 1.8
v -0.9 0.4 1.6
v -0.8 0 1.3
v -0.8 0 1.1
v -0.8 0 0.9
v -0.8 0 0.7
v -0.8 0.1 1.6
v -0.8 0.1 1.3
v -0.8 0.1 1.1
v -0.8 0.1 0.9
v -0.8 0.1 0.7
v -0.8 0.1 0.5
v -0.8 0.2 1.8
v -0.8 0.2 1.6
v -0.8 0.2 1.3
v -0.8 0.2 0.7
v -0.8 0.2 0.5
v -0.8 0.2 0.4
v -0.8 0.3 1.9
v -0.8 0.3 1.8
v -0.8 0.3 1.6
v -0.8 0.3 0.5
v -0.8 0.3 0.4
v -0.8 0.4 1.9
v -0.8 0.4 1.8
v -0.7 0 1.5
v -0.7 0 1.3
v -0.7 0 0.7
v -0.7 0 0.5
v -0.7 0.1 1.7
v -0.7 0.1 1.6
v -0.7 0.1 1.5
v -0.7 0.1 1.3
v -0.7 0.1 0.7
v -0.7 0.1 0.5
v -0.7 0.1 0.4
v -0.7 0.2 1.9
v -0.7 0.2 1.8
v -0.7 0.2 1.7
v -0.7 0.2 1.6
v -0.7 0.2 0.5
v -0.7 0.2 0.4
v -0.7 0.3 2
v -0.7 0.3 1.9
v -0.7 0.3 1.8
v -0.7 0.4 2
v -0.7 0.4 1.9
v -0.6 0 1.7
v -0.6 0 1.5
v -0.6 0 0.5
v -0.6 0 0.4
v -0.6 0.1 1.9
v -0.6 0.1 1.7
v -0.6 0.1 1.5
v -0.6 0.1 0.5
v -0.6 0.1 0.4
v -0.6 0.2 2
v -0.6 0.2 1.9
v -0.6 0.2 1.7
v -0.6 0.3 2
v -0.6 0.3 1.9
v -0.5 0 1.9
v -0.5 0 1.7
v -0.5 0.1 2
v -0.5 0.1 1.9
v -0.5 0.1 1.7
v -0.5 0.2 2
v -0.5 0.2 1.9
v -0.4 0 2
v -0.4 0 1.9
v -0.4 0.1 2
v -0.4 0.1 1.9
v -2 0 2
v -2 0.1 2
v -1.9 0.1 2
v -1.9 0.2 2
v -1.8 0.2 2
v -1.8 0.3 2
v -1.7 0.3 2
v -1.7 0.4 2
v -0.7 0.3 2
v -0.7 0.4 2
v -0.6 0.2 2
v -0.6 0.3 2
v -0.5 0.1 2
v -0.5 0.2 2
v -0.4 0 2
v -0.4 0.1 2
v -1.6 0 0.9
v -1.6 0.1 0.9
v -1.5 0 0.9
v -1.5 0.1 0.9
v -0.9 0 0.9
v -0.9 0.1 0.9
v -0.8 0 0.9
v -0.8 0.1 0.9
v -1.7 0 0.7
v -1.7 0.1 0.7
v -1.6 0 0.7
v -1.6 0.1 0.7
v -1.6 0.2 0.7
v -1.5 0.1 0.7
v -1.5 0.2 0.7
v -1.5 0.3 0.7
v -1.4 0.2 0.7
v -1.4 0.3 0.7
v -1.4 0.4 0.7
v -1.3 0.3 0.7
v -1.3 0.4 0.7
v -1.1 0.3 0.7
v -1.1 0.4 0.7
v -1 0.2 0.7
v -1 0.3 0.7
v -1 0.4 0.7
v -0.9 0.1 0.7
v -0.9 0.2 0.7
v -0.9 0.3 0.7
v -0.8 0 0.7
v -0.8 0.1 0.7
v -0.8 0.2 0.7
v -0.7 0 0.7
v -0.7 0.1 0.7
v -1.8 0 0.5
v -1.8 0.1 0.5
v -1.7 0 0.5
v -1.7 0.1 0.5
v -1.7 0.2 0.5
v -1.6 0.1 0.5
v -1.6 0.2 0.5
v -1.6 0.3 0.5
v -1.5 0.2 0.5
v -1.5 0.3 0.5
v -0.9 0.2 0.5
v -0.9 0.3 0.5
v -0.8 0.1 0.5
v -0.8 0.2 0.5
v -0.8 0.3 0.5
v -0.7 0 0.5
v -0.7 0.1 0.5
v -0.7 0.2 0.5
v -0.6 0 0.5
v -0.6 0.1 0.5
v -2 0 1.9
v -2 0.1 1.9
v -1.9 0 1.9
v -1.9 0.1 1.9
v -1.9 0.2 1.9
v -1.8 0.1 1.9
v -1.8 0.2 1.9
v -1.8 0.3 1.9
v -1.7 0.2 1.9
v -1.7 0.3 1.9
v -1.7 0.4 1.9
v -1.6 0.3 1.9
v -1.6 0.4 1.9
v -0.8 0.3 1.9
v -0.8 0.4 1.9
v -0.7 0.2 1.9
v -0.7 0.3 1.9
v -0.7 0.4 1.9
v -0.6 0.1 1.9
v -0.6 0.2 1.9
v -0.6 0.3 1.9
v -0.5 0 1.9
v -0.5 0.1 1.9
v -0.5 0.2 1.9
v -0.4 0 1.9
v -0.4 0.1 1.9
v -0.9 0.3 1.8
v -0.9 0.4 1.8
v -0.8 0.2 1.8
v -0.8 0.3 1.8
v -0.8 0.4 1.8
v -0.7 0.2 1.8
v -0.7 0.3 1.8
v -1.9 0 1.7
v -1.9 0.1 1.7
v -1.8 0 1.7
v -1.8 0.1 1.7
v -1.8 0.2 1.7
v -1.7 0.1 1.7
v -1.7 0.2 1.7
v -1.7 0.3 1.7
v -1.6 0.2 1.7
v -1.6 0.3 1.7
v -1.6 0.4 1.7
v -1.5 0.3 1.7
v -1.5 0.4 1.7
v -0.7 0.1 1.7
v -0.7 0.2 1.7
v -0.6 0 1.7
v -0.6 0.1 1.7
v -0.6 0.2 1.7
v -0.5 0 1.7
v -0.5 0.1 1.7
v -1.7 0.1 1.6
v -1.7 0.2 1.6
v -1.6 0.1 1.6
v -1.6 0.2 1.6
v -1.6 0.3 1.6
v -1.5 0.2 1.6
v -1.5 0.3 1.6
v -1.5 0.4 1.6
v -1.4 0.3 1.6
v -1.4 0.4 1.6
v -1 0.2 1.6
v -1 0.4 1.6
v -0.9 0.3 1.6
v -0.9 0.4 1.6
v -0.8 0.1 1.6
v -0.8 0.2 1.6
v -0.8 0.3 1.6
v -0.7 0.1 1.6
v -0.7 0.2 1.6
v -1.8 0 1.5
v -1.8 0.1 1.5
v -1.7 0 1.5
v -1.7 0.1 1.5
v -0.7 0 1.5
v -0.7 0.1 1.5
v -0.6 0 1.5
v -0.6 0.1 1.5
v -1.7 0 1.3
v -1.7 0.1 1.3
v -1.6 0 1.3
v -1.6 0.1 1.3
v -1.6 0.2 1.3
v -1.5 0.1 1.3
v -1.5 0.2 1.3
v -1.5 0.3 1.3
v -1.4 0.2 1.3
v -1.4 0.3 1.3
v -1.4 0.4 1.3
v -1.3 0.3 1.3
v -1.3 0.4 1.3
v -1.1 0.3 1.3
v -1.1 0.4 1.3
v -1 0.3 1.3
v -1 0.4 1.3
v -0.9 0.1 1.3
v -0.9 0.2 1.3
v -0.8 0 1.3
v -0.8 0.1 1.3
v -0.8 0.2 1.3
v -0.7 0 1.3
v -0.7 0.1 1.3
v -1.6 0 1.1
v -1.6 0.1 1.1
v -1.5 0 1.1
v -1.5 0.1 1.1
v -0.9 0 1.1
v -0.9 0.1 1.1
v -0.8 0 1.1
v -0.8 0.1 1.1
v -1.8 0 0.4
v -1.8 0.1 0.4
v -1.7 0 0.4
v -1.7 0.1 0.4
v -1.7 0.2 0.4
v -1.6 0.1 0.4
v -1.6 0.2 0.4
v -1.6 0.3 0.4
v -1.4 0.2 0.4
v -1.4 0.3 0.4
v -1.4 0.4 0.4
v -1 0.2 0.4
v -1 0.3 0.4
v -1 0.4 0.4
v -0.8 0.1 0.4
v -0.8 0.2 0.4
v -0.8 0.3 0.4
v -0.7 0 0.4
v -0.7 0.1 0.4
v -0.7 0.2 0.4
v -0.6 0 0.4
v -0.6 0.1 0.4
v -2 0 2
v -0.4 0 2
v -2 0 1.9
v -1.9 0 1.9
v -0.5 0 1.9
v -0.4 0 1.9
v -1.9 0 1.7
v -1.8 0 1.7
v -0.6 0 1.7
v -0.5 0 1.7
v -1.8 0 1.5
v -1.7 0 1.5
v -0.7 0 1.5
v -0.6 0 1.5
v -1.7 0 1.3
v -1.6 0 1.3
v -0.8 0 1.3
v -0.7 0 1.3
v -1.6 0 1.1
v -1.5 0 1.1
v -0.9 0 1.1
v -0.8 0 1.1
v -1.6 0 0.9
v -1.5 0 0.9
v -0.9 0 0.9
v -0.8 0 0.9
v -1.7 0 0.7
v -1.6 0 0.7
v -0.8 0 0.7
v -0.7 0 0.7
v -1.8 0 0.5
v -1.7 0 0.5
v -0.7 0 0.5
v -0.6 0 0.5
v -1.8 0 0.4
v -1.7 0 0.4
v -0.7 0 0.4
v -0.6 0 0.4
v -2 0.1 2
v -1.9 0.1 2
v -0.5 0.1 2
v -0.4 0.1 2
v -2 0.1 1.9
v -1.9 0.1 1.9
v -1.8 0.1 1.9
v -0.6 0.1 1.9
v -0.5 0.1 1.9
v -0.4 0.1 1.9
v -1.9 0.1 1.7
v -1.8 0.1 1.7
v -1.7 0.1 1.7
v -0.7 0.1 1.7
v -0.6 0.1 1.7
v -0.5 0.1 1.7
v -1.7 0.1 1.6
v -1.6 0.1 1.6
v -0.8 0.1 1.6
v -0.7 0.1 1.6
v -1.8 0.1 1.5
v -1.7 0.1 1.5
v -0.7 0.1 1.5
v -0.6 0.1 1.5
v -1.7 0.1 1.3
v -1.6 0.1 1.3
v -1.5 0.1 1.3
v -0.9 0.1 1.3
v -0.8 0.1 1.3
v -0.7 0.1 1.3
v -1.6 0.1 1.1
v -1.5 0.1 1.1
v -0.9 0.1 1.1
v -0.8 0.1 1.1
v -1.6 0.1 0.9
v -1.5 0.1 0.9
v -0.9 0.1 0.9
v -0.8 0.1 0.9
v -1.7 0.1 0.7
v -1.6 0.1 0.7
v -1.5 0.1 0.7
v -0.9 0.1 0.7
v -0.8 0.1 0.7
v -0.7 0.1 0.7
v -1.8 0.1 0.5
v -1.7 0.1 0.5
v -1.6 0.1 0.5
v -0.8 0.1 0.5
v -0.7 0.1 0.5
v -0.6 0.1 0.5
v -1.8 0.1 0.4
v -1.7 0.1 0.4
v -0.7 0.1 0.4
v -0.6 0.1 0.4
v -1.9 0.2 2
v -1.8 0.2 2
v -0.6 0.2 2
v -0.5 0.2 2
v -1.9 0.2 1.9
v -1.8 0.2 1.9
v -1.7 0.2 1.9
v -0.7 0.2 1.9
v -0.6 0.2 1.9
v -0.5 0.2 1.9
v -0.8 0.2 1.8
v -0.7 0.2 1.8
v -1.8 0.2 1.7
v -1.7 0.2 1.7
v -1.6 0.2 1.7
v -0.7 0.2 1.7
v -0.6 0.2 1.7
v -1.7 0.2 1.6
v -1.6 0.2 1.6
v -1.5 0.2 1.6
v -1 0.2 1.6
v -0.8 0.2 1.6
v -0.7 0.2 1.6
v -1.6 0.2 1.3
v -1.5 0.2 1.3
v -1.4 0.2 1.3
v -0.9 0.2 1.3
v -0.8 0.2 1.3
v -1.6 0.2 0.7
v -1.5 0.2 0.7
v -1.4 0.2 0.7
v -1 0.2 0.7
v -0.9 0.2 0.7
v -0.8 0.2 0.7
v -1.7 0.2 0.5
v -1.6 0.2 0.5
v -1.5 0.2 0.5
v -0.9 0.2 0.5
v -0.8 0.2 0.5
v -0.7 0.2 0.5
v -1.7 0.2 0.4
v -1.6 0.2 0.4
v -0.8 0.2 0.4
v -0.7 0.2 0.4
v -1.8 0.3 2
v -1.7 0.3 2
v -0.7 0.3 2
v -0.6 0.3 2
v -1.8 0.3 1.9
v -1.7 0.3 1.9
v -1.6 0.3 1.9
v -0.8 0.3 1.9
v -0.7 0.3 1.9
v -0.6 0.3 1.9
v -0.9 0.3 1.8
v -0.8 0.3 1.8
v -0.7 0.3 1.8
v -1.7 0.3 1.7
v -1.6 0.3 1.7
v -1.5 0.3 1.7
v -1.6 0.3 1.6
v -1.5 0.3 1.6
v -1.4 0.3 1.6
v -0.9 0.3 1.6
v -0.8 0.3 1.6
v -1.5 0.3 1.3
v -1.4 0.3 1.3
v -1.3 0.3 1.3
v -1.1 0.3 1.3
v -1 0.3 1.3
v -1.5 0.3 0.7
v -1.4 0.3 0.7
v -1.3 0.3 0.7
v -1.1 0.3 0.7
v -1 0.3 0.7
v -0.9 0.3 0.7
v -1.6 0.3 0.5
v -1.5 0.3 0.5
v -1.4 0.3 0.5
v -1 0.3 0.5
v -0.9 0.3 0.5
v -0.8 0.3 0.5
v -1.6 0.3 0.4
v -1.4 0.3 0.4
v -1 0.3 0.4
v -0.8 0.3 0.4
v -1.7 0.4 2
v -0.7 0.4 2
v -1.7 0.4 1.9
v -1.6 0.4 1.9
v -1.3 0.4 1.9
v -1.2 0.4 1.9
v -0.8 0.4 1.9
v -0.7 0.4 1.9
v -1.3 0.4 1.8
v -1.2 0.4 1.8
v -1.1 0.4 1.8
v -0.9 0.4 1.8
v -0.8 0.4 1.8
v -1.6 0.4 1.7
v -1.5 0.4 1.7
v -1.4 0.4 1.7
v -1.2 0.4 1.7
v -1.1 0.4 1.7
v -1 0.4 1.7
v -1.5 0.4 1.6
v -1.4 0.4 1.6
v -1.3 0.4 1.6
v -1.2 0.4 1.6
v -1 0.4 1.6
v -0.9 0.4 1.6
v -1.3 0.4 1.5
v -1.2 0.4 1.5
v -1.1 0.4 1.5
v -1.2 0.4 1.4
v -1.1 0.4 1.4
v -1.4 0.4 1.3
v -1.3 0.4 1.3
v -1.1 0.4 1.3
v -1 0.4 1.3
v -1.4 0.4 0.7
v -1.3 0.4 0.7
v -1.1 0.4 0.7
v -1 0.4 0.7
v -1.4 0.4 0.5
v -1 0.4 0.5
v -1.4 0.4 0.4
v -1 0.4 0.4

# faces
f 3/1/1 2/1/1 1/1/1
f 4/1/1 2/1/1 3/1/1
f 8/1/1 6/1/1 5/1/1
f 9/1/1 6/1/1 8/1/1
f 10/1/1 8/1/1 7/1/1
f 11/1/1 8/1/1 10/1/1
f 17/1/1 13/1/1 12/1/1
f 18/1/1 13/1/1 17/1/1
f 19/2/1 15/2/1 14/2/1
f 20/2/1 15/2/1 19/2/1
f 22/1/1 17/1/1 16/1/1
f 23/1/1 17/1/1 22/1/1
f 24/1/1 22/1/1 21/1/1
f 25/1/1 22/1/1 24/1/1
f 32/1/1 27/1/1 26/1/1
f 33/1/1 27/1/1 32/1/1
f 34/1/1 29/1/1 28/1/1
f 35/1/1 29/1/1 34/1/1
f 38/1/1 31/1/1 30/1/1
f 39/1/1 31/1/1 38/1/1
f 40/2/1 36/2/1 35/2/1
f 41/2/1 36/2/1 40/2/1
f 43/1/1 38/1/1 37/1/1
f 44/1/1 38/1/1 43/1/1
f 45/1/1 43/1/1 42/1/1
f 46/1/1 43/1/1 45/1/1
f 52/1/1 48/1/1 47/1/1
f 53/1/1 48/1/1 52/1/1
f 54/1/1 50/1/1 49/1/1
f 55/1/1 50/1/1 54/1/1
f 58/1/1 52/1/1 51/1/1
f 59/1/1 52/1/1 58/1/1
f 60/1/1 56/1/1 55/1/1
f 61/1/1 56/1/1 60/1/1
f 64/1/1 58/1/1 57/1/1
f 65/1/1 58/1/1 64/1/1
f 66/2/1 62/2/1 61/2/1
f 67/2/1 62/2/1 66/2/1
f 68/1/1 64/1/1 63/1/1
f 69/1/1 64/1/1 68/1/1
f 73/1/1 71/1/1 70/1/1
f 74/1/1 71/1/1 73/1/1
f 77/1/1 73/1/1 72/1/1
f 77/1/1 75/1/1 74/1/1
f 77/1/1 74/1/1 73/1/1
f 78/1/1 75/1/1 77/1/1
f 81/1/1 77/1/1 76/1/1
f 82/1/1 77/1/1 81/1/1
f 83/1/1 79/1/1 78/1/1
f 84/1/1 79/1/1 83/1/1
f 85/1/1 81/1/1 80/1/1
f 86/1/1 81/1/1 85/1/1
f 90/1/1 88/1/1 87/1/1
f 91/1/1 88/1/1 90/1/1
f 94/1/1 90/1/1 89/1/1
f 95/1/1 90/1/1 94/1/1
f 96/1/1 92/1/1 91/1/1
f 97/2/1 93/2/1 92/2/1
f 97/1/1 92/1/1 96/1/1
f 98/2/1 93/2/1 97/2/1
f 101/1/1 100/1/1 99/1/1
f 102/1/1 100/1/1 101/1/1
f 103/1/2 104/1/2 105/1/2
f 105/1/2 104/1/2 106/1/2
f 107/1/2 108/1/2 109/1/2
f 109/1/2 108/1/2 110/1/2
f 107/1/2 109/1/2 113/1/2
f 113/1/2 109/1/2 114/1/2
f 110/1/2 111/1/2 115/1/2
f 111/2/2 112/2/2 116/2/2
f 115/1/2 111/1/2 116/1/2
f 116/2/2 112/2/2 117/2/2
f 118/1/2 119/1/2 121/1/2
f 121/1/2 119/1/2 122/1/2
f 120/1/2 121/1/2 124/1/2
f 122/1/2 123/1/2 124/1/2
f 121/1/2 122/1/2 124/1/2
f 124/1/2 123/1/2 125/1/2
f 125/1/2 126/1/2 129/1/2
f 129/1/2 126/1/2 130/1/2
f 127/1/2 128/1/2 131/1/2
f 131/1/2 128/1/2 132/1/2
f 133/1/2 134/1/2 138/1/2
f 138/1/2 134/1/2 139/1/2
f 135/1/2 136/1/2 140/1/2
f 140/1/2 136/1/2 141/1/2
f 137/1/2 138/1/2 144/1/2
f 144/1/2 138/1/2 145/1/2
f 141/1/2 142/1/2 146/1/2
f 146/1/2 142/1/2 147/1/2
f 143/1/2 144/1/2 150/1/2
f 150/1/2 144/1/2 151/1/2
f 147/2/2 148/2/2 152/2/2
f 152/2/2 148/2/2 153/2/2
f 149/1/2 150/1/2 154/1/2
f 154/1/2 150/1/2 155/1/2
f 156/1/2 157/1/2 162/1/2
f 162/1/2 157/1/2 163/1/2
f 158/1/2 159/1/2 164/1/2
f 164/1/2 159/1/2 165/1/2
f 160/1/2 161/1/2 169/1/2
f 169/1/2 161/1/2 170/1/2
f 165/2/2 166/2/2 171/2/2
f 171/2/2 166/2/2 172/2/2
f 167/1/2 168/1/2 174/1/2
f 174/1/2 168/1/2 175/1/2
f 173/1/2 174/1/2 176/1/2
f 176/1/2 174/1/2 177/1/2
f 178/1/2 179/1/2 183/1/2
f 183/1/2 179/1/2 184/1/2
f 180/2/2 181/2/2 185/2/2
f 185/2/2 181/2/2 186/2/2
f 182/1/2 183/1/2 188/1/2
f 188/1/2 183/1/2 189/1/2
f 187/1/2 188/1/2 190/1/2
f 190/1/2 188/1/2 191/1/2
f 192/1/2 193/1/2 195/1/2
f 195/1/2 193/1/2 196/1/2
f 194/1/2 195/1/2 197/1/2
f 197/1/2 195/1/2 198/1/2
f 199/1/2 200/1/2 201/1/2
f 201/1/2 200/1/2 202/1/2
f 205/1/3 204/1/3 203/1/3
f 207/1/3 206/1/3 205/1/3
f 209/1/3 208/1/3 207/1/3
f 211/1/3 209/1/3 207/1/3
f 211/1/3 210/1/3 209/1/3
f 212/1/3 210/1/3 211/1/3
f 213/1/3 207/1/3 205/1/3
f 213/1/3 211/1/3 207/1/3
f 214/1/3 211/1/3 213/1/3
f 215/1/3 205/1/3 203/1/3
f 215/1/3 213/1/3 205/1/3
f 216/1/3 213/1/3 215/1/3
f 217/1/3 215/1/3 203/1/3
f 218/1/3 215/1/3 217/1/3
f 221/1/3 220/1/3 219/1/3
f 222/1/3 220/1/3 221/1/3
f 225/1/3 224/1/3 223/1/3
f 226/1/3 224/1/3 225/1/3
f 229/1/3 228/1/3 227/1/3
f 230/1/3 228/1/3 229/1/3
f 232/1/3 231/1/3 230/1/3
f 233/1/3 231/1/3 232/1/3
f 235/1/3 234/1/3 233/1/3
f 236/1/3 234/1/3 235/1/3
f 238/1/3 237/1/3 236/1/3
f 239/1/3 237/1/3 238/1/3
f 243/1/3 241/1/3 240/1/3
f 244/1/3 241/1/3 243/1/3
f 246/1/3 243/1/3 242/1/3
f 247/1/3 243/1/3 246/1/3
f 249/1/3 246/1/3 245/1/3
f 250/1/3 246/1/3 249/1/3
f 251/1/3 249/1/3 248/1/3
f 252/1/3 249/1/3 251/1/3
f 255/2/3 254/2/3 253/2/3
f 256/2/3 254/2/3 255/2/3
f 258/2/3 257/2/3 256/2/3
f 259/2/3 257/2/3 258/2/3
f 261/2/3 260/2/3 259/2/3
f 262/2/3 260/2/3 261/2/3
f 266/2/3 264/2/3 263/2/3
f 267/2/3 264/2/3 266/2/3
f 269/2/3 266/2/3 265/2/3
f 270/2/3 266/2/3 269/2/3
f 271/2/3 269/2/3 268/2/3
f 272/2/3 269/2/3 271/2/3
f 273/1/4 274/1/4 275/1/4
f 275/1/4 274/1/4 276/1/4
f 276/1/4 277/1/4 278/1/4
f 278/1/4 277/1/4 279/1/4
f 279/1/4 280/1/4 281/1/4
f 281/1/4 280/1/4 282/1/4
f 282/1/4 283/1/4 284/1/4
f 284/1/4 283/1/4 285/1/4
f 286/1/4 287/1/4 289/1/4
f 289/1/4 287/1/4 290/1/4
f 288/1/4 289/1/4 292/1/4
f 292/1/4 289/1/4 293/1/4
f 291/1/4 292/1/4 295/1/4
f 295/1/4 292/1/4 296/1/4
f 294/1/4 295/1/4 297/1/4
f 297/1/4 295/1/4 298/1/4
f 299/1/4 300/1/4 302/1/4
f 302/1/4 300/1/4 303/1/4
f 301/1/4 302/1/4 304/1/4
f 304/1/4 302/1/4 305/1/4
f 306/1/4 307/1/4 308/1/4
f 308/1/4 307/1/4 309/1/4
f 309/1/4 310/1/4 311/1/4
f 311/1/4 310/1/4 312/1/4
f 312/1/4 313/1/4 314/1/4
f 314/1/4 313/1/4 315/1/4
f 315/1/4 316/1/4 317/1/4
f 317/1/4 316/1/4 318/1/4
f 319/1/4 320/1/4 322/1/4
f 322/1/4 320/1/4 323/1/4
f 321/1/4 322/1/4 324/1/4
f 324/1/4 322/1/4 325/1/4
f 326/1/4 327/1/4 328/1/4
f 328/1/4 327/1/4 329/1/4
f 329/1/4 330/1/4 331/1/4
f 331/1/4 330/1/4 332/1/4
f 332/1/4 333/1/4 334/1/4
f 334/1/4 333/1/4 335/1/4
f 336/1/4 337/1/4 338/1/4
f 338/1/4 337/1/4 339/1/4
f 336/1/4 338/1/4 341/1/4
f 341/1/4 338/1/4 342/1/4
f 340/1/4 341/1/4 343/1/4
f 343/1/4 341/1/4 344/1/4
f 345/1/4 346/1/4 347/1/4
f 347/1/4 346/1/4 348/1/4
f 349/1/4 350/1/4 351/1/4
f 351/1/4 350/1/4 352/1/4
f 353/1/4 354/1/4 355/1/4
f 355/1/4 354/1/4 356/1/4
f 356/1/4 357/1/4 358/1/4
f 358/1/4 357/1/4 359/1/4
f 359/1/4 360/1/4 361/1/4
f 361/1/4 360/1/4 362/1/4
f 362/1/4 363/1/4 364/1/4
f 364/1/4 363/1/4 365/1/4
f 366/1/4 367/1/4 368/1/4
f 368/1/4 367/1/4 369/1/4
f 370/1/4 371/1/4 373/1/4
f 373/1/4 371/1/4 374/1/4
f 372/1/4 373/1/4 375/1/4
f 375/1/4 373/1/4 376/1/4
f 377/1/4 378/1/4 379/1/4
f 379/1/4 378/1/4 380/1/4
f 381/1/4 382/1/4 383/1/4
f 383/1/4 382/1/4 384/1/4
f 385/2/4 386/2/4 387/2/4
f 387/2/4 386/2/4 388/2/4
f 387/1/4 388/1/4 390/1/4
f 388/2/4 389/2/4 390/2/4
f 390/2/4 389/2/4 391/2/4
f 390/1/4 391/1/4 393/1/4
f 391/2/4 392/2/4 393/2/4
f 393/2/4 392/2/4 394/2/4
f 390/1/4 393/1/4 396/1/4
f 393/1/4 394/1/4 396/1/4
f 394/2/4 395/2/4 397/2/4
f 396/1/4 394/1/4 397/1/4
f 397/2/4 395/2/4 398/2/4
f 387/1/4 390/1/4 399/1/4
f 390/1/4 396/1/4 399/1/4
f 396/2/4 397/2/4 400/2/4
f 399/1/4 396/1/4 400/1/4
f 400/2/4 397/2/4 401/2/4
f 387/1/4 399/1/4 402/1/4
f 399/2/4 400/2/4 403/2/4
f 402/1/4 399/1/4 403/1/4
f 403/2/4 400/2/4 404/2/4
f 402/2/4 403/2/4 405/2/4
f 405/2/4 403/2/4 406/2/4
f 409/1/5 408/1/5 407/1/5
f 410/1/5 408/1/5 409/1/5
f 411/1/5 408/1/5 410/1/5
f 412/1/5 408/1/5 411/1/5
f 413/1/5 411/1/5 410/1/5
f 414/1/5 411/1/5 413/1/5
f 415/1/5 411/1/5 414/1/5
f 416/1/5 411/1/5 415/1/5
f 417/1/5 415/1/5 414/1/5
f 418/1/5 415/1/5 417/1/5
f 419/1/5 415/1/5 418/1/5
f 420/1/5 415/1/5 419/1/5
f 421/1/5 419/1/5 418/1/5
f 422/1/5 419/1/5 421/1/5
f 423/1/5 419/1/5 422/1/5
f 424/1/5 419/1/5 423/1/5
f 425/1/5 423/1/5 422/1/5
f 426/1/5 423/1/5 425/1/5
f 427/1/5 423/1/5 426/1/5
f 428/1/5 423/1/5 427/1/5
f 430/1/5 427/1/5 426/1/5
f 431/1/5 427/1/5 430/1/5
f 434/1/5 430/1/5 429/1/5
f 434/1/5 432/1/5 431/1/5
f 434/1/5 431/1/5 430/1/5
f 435/1/5 432/1/5 434/1/5
f 438/1/5 435/1/5 434/1/5
f 438/1/5 436/1/5 435/1/5
f 438/1/5 434/1/5 433/1/5
f 439/1/5 436/1/5 438/1/5
f 441/2/5 438/2/5 437/2/5
f 442/1/5 439/1/5 438/1/5
f 442/2/5 438/2/5 441/2/5
f 443/2/5 440/2/5 439/2/5
f 443/1/5 439/1/5 442/1/5
f 444/2/5 440/2/5 443/2/5
f 445/1/6 446/1/6 449/1/6
f 449/1/6 446/1/6 450/1/6
f 447/1/6 448/1/6 453/1/6
f 453/1/6 448/1/6 454/1/6
f 450/1/6 451/1/6 455/1/6
f 455/1/6 451/1/6 456/1/6
f 452/1/6 453/1/6 459/1/6
f 459/1/6 453/1/6 460/1/6
f 456/1/6 457/1/6 461/1/6
f 458/1/6 459/1/6 464/1/6
f 461/1/6 462/1/6 465/1/6
f 456/1/6 461/1/6 465/1/6
f 465/1/6 462/1/6 466/1/6
f 463/1/6 464/1/6 467/1/6
f 464/1/6 459/1/6 467/1/6
f 467/1/6 459/1/6 468/1/6
f 466/1/6 462/1/6 469/1/6
f 469/1/6 462/1/6 470/1/6
f 463/1/6 467/1/6 473/1/6
f 473/1/6 467/1/6 474/1/6
f 470/1/6 471/1/6 475/1/6
f 475/1/6 471/1/6 476/1/6
f 472/1/6 473/1/6 477/1/6
f 477/1/6 473/1/6 478/1/6
f 479/1/6 480/1/6 484/1/6
f 484/1/6 480/1/6 485/1/6
f 481/1/6 482/1/6 486/1/6
f 486/1/6 482/1/6 487/1/6
f 483/1/6 484/1/6 490/1/6
f 490/1/6 484/1/6 491/1/6
f 487/1/6 488/1/6 492/1/6
f 492/1/6 488/1/6 493/1/6
f 489/2/6 490/2/6 495/2/6
f 495/2/6 490/2/6 496/2/6
f 493/2/6 494/2/6 497/2/6
f 497/2/6 494/2/6 498/2/6
f 499/1/6 500/1/6 503/1/6
f 503/1/6 500/1/6 504/1/6
f 501/1/6 502/1/6 507/1/6
f 507/1/6 502/1/6 508/1/6
f 506/1/6 507/1/6 510/1/6
f 504/1/6 505/1/6 511/1/6
f 511/1/6 505/1/6 512/1/6
f 509/1/6 510/1/6 514/1/6
f 510/1/6 507/1/6 514/1/6
f 514/1/6 507/1/6 515/1/6
f 512/1/6 513/1/6 516/1/6
f 516/1/6 513/1/6 517/1/6
f 509/1/6 514/1/6 520/1/6
f 520/1/6 514/1/6 521/1/6
f 517/1/6 518/1/6 522/1/6
f 522/1/6 518/1/6 523/1/6
f 519/1/6 520/1/6 525/1/6
f 525/1/6 520/1/6 526/1/6
f 523/1/6 524/1/6 528/1/6
f 528/1/6 524/1/6 529/1/6
f 519/1/6 525/1/6 530/1/6
f 530/1/6 525/1/6 531/1/6
f 527/1/6 528/1/6 534/1/6
f 534/1/6 528/1/6 535/1/6
f 531/1/6 532/1/6 536/1/6
f 536/1/6 532/1/6 537/1/6
f 533/2/6 534/2/6 539/2/6
f 539/2/6 534/2/6 540/2/6
f 537/2/6 538/2/6 541/2/6
f 541/2/6 538/2/6 542/2/6
f 543/1/6 544/1/6 547/1/6
f 547/1/6 544/1/6 548/1/6
f 545/1/6 546/1/6 551/1/6
f 551/1/6 546/1/6 552/1/6
f 550/1/6 551/1/6 554/1/6
f 554/1/6 551/1/6 555/1/6
f 548/1/6 549/1/6 556/1/6
f 556/1/6 549/1/6 557/1/6
f 557/1/6 558/1/6 559/1/6
f 559/1/6 558/1/6 560/1/6
f 553/1/6 554/1/6 562/1/6
f 562/1/6 554/1/6 563/1/6
f 560/1/6 561/1/6 564/1/6
f 564/1/6 561/1/6 565/1/6
f 565/1/6 566/1/6 570/1/6
f 570/1/6 566/1/6 571/1/6
f 567/1/6 568/1/6 572/1/6
f 572/1/6 568/1/6 573/1/6
f 569/1/6 570/1/6 576/1/6
f 576/1/6 570/1/6 577/1/6
f 573/1/6 574/1/6 578/1/6
f 578/1/6 574/1/6 579/1/6
f 576/2/6 577/2/6 581/2/6
f 575/2/6 576/2/6 581/2/6
f 581/2/6 577/2/6 582/2/6
f 579/2/6 580/2/6 583/2/6
f 578/2/6 579/2/6 583/2/6
f 583/2/6 580/2/6 584/2/6
f 585/1/6 586/1/6 587/1/6
f 587/1/6 586/1/6 588/1/6
f 588/1/6 586/1/6 589/1/6
f 589/1/6 586/1/6 590/1/6
f 590/1/6 586/1/6 591/1/6
f 591/1/6 586/1/6 592/1/6
f 588/1/6 589/1/6 593/1/6
f 589/2/6 590/2/6 593/2/6
f 590/1/6 591/1/6 594/1/6
f 593/2/6 590/2/6 594/2/6
f 594/1/6 591/1/6 595/1/6
f 595/1/6 591/1/6 596/1/6
f 596/1/6 591/1/6 597/1/6
f 588/1/6 593/1/6 598/1/6
f 593/1/6 594/1/6 598/1/6
f 598/1/6 594/1/6 599/1/6
f 599/1/6 594/1/6 600/1/6
f 594/2/6 595/2/6 601/2/6
f 600/1/6 594/1/6 601/1/6
f 595/1/6 596/1/6 602/1/6
f 601/2/6 595/2/6 602/2/6
f 602/1/6 596/1/6 603/1/6
f 599/1/6 600/1/6 604/1/6
f 600/2/6 601/2/6 605/2/6
f 604/1/6 600/1/6 605/1/6
f 602/2/6 603/2/6 605/2/6
f 601/2/6 602/2/6 605/2/6
f 605/2/6 603/2/6 606/2/6
f 606/2/6 603/2/6 607/2/6
f 603/1/6 596/1/6 608/1/6
f 607/2/6 603/2/6 608/2/6
f 608/1/6 596/1/6 609/1/6
f 606/2/6 607/2/6 610/2/6
f 605/1/6 606/1/6 610/1/6
f 607/1/6 608/1/6 611/1/6
f 610/2/6 607/2/6 611/2/6
f 611/1/6 608/1/6 612/1/6
f 610/1/6 611/1/6 613/1/6
f 611/2/6 612/2/6 613/2/6
f 612/1/6 608/1/6 614/1/6
f 613/2/6 612/2/6 614/2/6
f 605/1/6 610/1/6 615/1/6
f 610/1/6 613/1/6 615/1/6
f 613/1/6 614/1/6 615/1/6
f 615/1/6 614/1/6 616/1/6
f 614/1/6 608/1/6 617/1/6
f 616/1/6 614/1/6 617/1/6
f 617/1/6 608/1/6 618/1/6
f 616/1/6 617/1/6 620/1/6
f 620/1/6 617/1/6 621/1/6
f 619/1/6 620/1/6 623/1/6
f 621/1/6 622/1/6 623/1/6
f 620/1/6 621/1/6 623/1/6
f 623/1/6 622/1/6 624/1/6
f 623/2/6 624/2/6 625/2/6
f 625/2/6 624/2/6 626/2/6
