# MagicaVoxel @ Ephtracy

# group
o 

# material
mtllib 1.vox.mtl
usemtl palette

# normals
vn -1 0 0
vn 1 0 0
vn 0 0 1
vn 0 0 -1
vn 0 -1 0
vn 0 1 0

# texcoords
vt 0.306641 0.5
vt 0.970703 0.5
vt 0.974609 0.5
vt 0.978516 0.5
vt 0.982422 0.5

# verts
v -2 0 2
v -2 0 1.5
v -2 0 1.4
v -2 0.1 2
v -2 0.1 1.5
v -2 0.1 1.4
v -1.9 0.1 2
v -1.9 0.1 1.5
v -1.9 0.1 1.4
v -1.9 0.2 2
v -1.9 0.2 1.5
v -1.9 0.2 1.4
v -1.8 0 1.4
v -1.8 0 0.9
v -1.8 0 0.8
v -1.8 0.1 1.4
v -1.8 0.1 0.9
v -1.8 0.1 0.8
v -1.8 0.2 2
v -1.8 0.2 1.6
v -1.8 0.4 2
v -1.8 0.4 1.6
v -1.7 0.1 1.4
v -1.7 0.1 0.9
v -1.7 0.1 0.8
v -1.7 0.2 1.6
v -1.7 0.2 1.5
v -1.7 0.2 1.4
v -1.7 0.2 0.9
v -1.7 0.2 0.8
v -1.7 0.4 1.6
v -1.7 0.4 1.5
v -1.6 0 0.8
v -1.6 0 0.5
v -1.6 0 0.4
v -1.6 0.1 0.8
v -1.6 0.1 0.5
v -1.6 0.1 0.4
v -1.6 0.2 1.5
v -1.6 0.2 1.1
v -1.6 0.2 1
v -1.6 0.4 1.5
v -1.6 0.4 1.1
v -1.6 0.4 1
v -1.5 0.1 1
v -1.5 0.1 0.5
v -1.5 0.1 0.4
v -1.5 0.2 1
v -1.5 0.2 0.5
v -1.5 0.2 0.4
v -1.4 0.2 1
v -1.4 0.2 0.5
v -1.4 0.2 0.4
v -1.4 0.3 1
v -1.4 0.3 0.5
v -1.4 0.3 0.4
v -1.3 0.3 1.3
v -1.3 0.3 1.2
v -1.3 0.4 1.3
v -1.3 0.4 1.2
v -1.2 0.3 1.2
v -1.2 0.3 1.1
v -1.2 0.4 1.2
v -1.2 0.4 1.1
v -1.1 0.2 1.1
v -1.1 0.2 1
v -1.1 0.4 1.1
v -1.1 0.4 1
v -1.6 0.1 1
v -1.6 0.1 0.9
v -1.6 0.1 0.8
v -1.6 0.2 1
v -1.6 0.2 0.9
v -1.6 0.2 0.8
v -1.4 0.3 1.3
v -1.4 0.3 1.1
v -1.4 0.3 1
v -1.4 0.4 1.3
v -1.4 0.4 1.1
v -1.4 0.4 1
v -1.2 0.2 1.1
v -1.2 0.2 0.5
v -1.2 0.2 0.4
v -1.2 0.3 1.1
v -1.2 0.3 0.5
v -1.2 0.3 0.4
v -1.1 0.1 1
v -1.1 0.1 0.5
v -1.1 0.1 0.4
v -1.1 0.2 1
v -1.1 0.2 0.5
v -1.1 0.2 0.4
v -1 0 1
v -1 0 0.5
v -1 0 0.4
v -1 0.1 1
v -1 0.1 0.5
v -1 0.1 0.4
v -1 0.2 2
v -1 0.2 1.8
v -1 0.4 2
v -1 0.4 1.8
v -0.9 0 1.1
v -0.9 0 1
v -0.9 0.2 1.8
v -0.9 0.2 1.7
v -0.9 0.4 1.8
v -0.9 0.4 1.7
v -0.9 0.4 1.1
v -0.9 0.4 1
v -0.8 0.2 1.7
v -0.8 0.2 1.6
v -0.8 0.4 1.7
v -0.8 0.4 1.6
v -0.7 0.2 1.6
v -0.7 0.2 1.1
v -0.7 0.4 1.6
v -0.7 0.4 1.1
v -0.5 0 1.2
v -0.5 0 1.1
v -0.5 0.1 2
v -0.5 0.1 1.2
v -0.5 0.2 2
v -0.5 0.2 1.1
v -0.4 0 2
v -0.4 0 1.2
v -0.4 0.1 2
v -0.4 0.1 1.2
v -2 0 2
v -2 0.1 2
v -1.9 0.1 2
v -1.9 0.2 2
v -1.8 0 2
v -1.8 0.2 2
v -1.8 0.4 2
v -1 0 2
v -1 0.2 2
v -1 0.4 2
v -0.5 0.1 2
v -0.5 0.2 2
v -0.4 0 2
v -0.4 0.1 2
v -1 0.2 1.8
v -1 0.4 1.8
v -0.9 0.2 1.8
v -0.9 0.4 1.8
v -0.9 0.2 1.7
v -0.9 0.4 1.7
v -0.8 0.2 1.7
v -0.8 0.4 1.7
v -0.8 0.2 1.6
v -0.8 0.4 1.6
v -0.7 0.2 1.6
v -0.7 0.4 1.6
v -1.8 0.2 1.6
v -1.8 0.4 1.6
v -1.7 0.2 1.6
v -1.7 0.4 1.6
v -1.7 0.2 1.5
v -1.7 0.4 1.5
v -1.6 0.2 1.5
v -1.6 0.4 1.5
v -2 0 1.4
v -2 0.1 1.4
v -1.9 0.1 1.4
v -1.9 0.2 1.4
v -1.8 0 1.4
v -1.8 0.1 1.4
v -1.7 0.1 1.4
v -1.7 0.2 1.4
v -1.4 0.3 1.3
v -1.4 0.4 1.3
v -1.3 0.3 1.3
v -1.3 0.4 1.3
v -1.3 0.3 1.2
v -1.3 0.4 1.2
v -1.2 0.3 1.2
v -1.2 0.4 1.2
v -0.5 0 1.2
v -0.5 0.1 1.2
v -0.4 0 1.2
v -0.4 0.1 1.2
v -1.2 0.2 1.1
v -1.2 0.3 1.1
v -1.2 0.4 1.1
v -1.1 0.2 1.1
v -1.1 0.4 1.1
v -0.9 0 1.1
v -0.9 0.4 1.1
v -0.7 0 1.1
v -0.7 0.2 1.1
v -0.7 0.4 1.1
v -0.5 0 1.1
v -0.5 0.2 1.1
v -1.6 0.1 1
v -1.6 0.2 1
v -1.6 0.4 1
v -1.5 0.1 1
v -1.5 0.2 1
v -1.4 0.2 1
v -1.4 0.3 1
v -1.4 0.4 1
v -1.1 0.1 1
v -1.1 0.2 1
v -1.1 0.4 1
v -1 0 1
v -1 0.1 1
v -0.9 0 1
v -0.9 0.4 1
v -1.8 0 0.8
v -1.8 0.1 0.8
v -1.7 0.1 0.8
v -1.7 0.2 0.8
v -1.6 0 0.8
v -1.6 0.1 0.8
v -1.6 0.2 0.8
v -1.6 0 0.4
v -1.6 0.1 0.4
v -1.5 0.1 0.4
v -1.5 0.2 0.4
v -1.4 0.2 0.4
v -1.4 0.3 0.4
v -1.2 0.2 0.4
v -1.2 0.3 0.4
v -1.1 0.1 0.4
v -1.1 0.2 0.4
v -1 0 0.4
v -1 0.1 0.4
v -2 0 2
v -1.8 0 2
v -1 0 2
v -0.4 0 2
v -1 0 1.8
v -0.9 0 1.8
v -1.8 0 1.7
v -1.7 0 1.7
v -0.9 0 1.7
v -0.8 0 1.7
v -1.7 0 1.6
v -1.6 0 1.6
v -0.8 0 1.6
v -0.7 0 1.6
v -2 0 1.5
v -1.6 0 1.5
v -2 0 1.4
v -1.8 0 1.4
v -1.6 0 1.4
v -1.4 0 1.4
v -1.1 0 1.4
v -1.4 0 1.3
v -1.1 0 1.3
v -0.5 0 1.2
v -0.4 0 1.2
v -0.9 0 1.1
v -0.7 0 1.1
v -0.5 0 1.1
v -1.1 0 1
v -1 0 1
v -0.9 0 1
v -1.8 0 0.9
v -1.6 0 0.9
v -1.8 0 0.8
v -1.6 0 0.8
v -1.6 0 0.5
v -1 0 0.5
v -1.6 0 0.4
v -1 0 0.4
v -2 0.1 2
v -1.9 0.1 2
v -0.5 0.1 2
v -0.4 0.1 2
v -2 0.1 1.5
v -1.9 0.1 1.5
v -2 0.1 1.4
v -1.9 0.1 1.4
v -1.8 0.1 1.4
v -1.7 0.1 1.4
v -0.5 0.1 1.2
v -0.4 0.1 1.2
v -1.6 0.1 1
v -1.5 0.1 1
v -1.1 0.1 1
v -1 0.1 1
v -1.8 0.1 0.9
v -1.7 0.1 0.9
v -1.6 0.1 0.9
v -1.8 0.1 0.8
v -1.7 0.1 0.8
v -1.6 0.1 0.8
v -1.6 0.1 0.5
v -1.5 0.1 0.5
v -1.1 0.1 0.5
v -1 0.1 0.5
v -1.6 0.1 0.4
v -1.5 0.1 0.4
v -1.1 0.1 0.4
v -1 0.1 0.4
v -1.9 0.2 2
v -1.8 0.2 2
v -1 0.2 2
v -0.5 0.2 2
v -1 0.2 1.8
v -0.9 0.2 1.8
v -0.9 0.2 1.7
v -0.8 0.2 1.7
v -1.8 0.2 1.6
v -1.7 0.2 1.6
v -0.8 0.2 1.6
v -0.7 0.2 1.6
v -1.9 0.2 1.5
v -1.7 0.2 1.5
v -1.6 0.2 1.5
v -1.9 0.2 1.4
v -1.7 0.2 1.4
v -1.6 0.2 1.1
v -1.2 0.2 1.1
v -1.1 0.2 1.1
v -0.7 0.2 1.1
v -0.5 0.2 1.1
v -1.6 0.2 1
v -1.5 0.2 1
v -1.4 0.2 1
v -1.1 0.2 1
v -1.7 0.2 0.9
v -1.6 0.2 0.9
v -1.7 0.2 0.8
v -1.6 0.2 0.8
v -1.5 0.2 0.5
v -1.4 0.2 0.5
v -1.2 0.2 0.5
v -1.1 0.2 0.5
v -1.5 0.2 0.4
v -1.4 0.2 0.4
v -1.2 0.2 0.4
v -1.1 0.2 0.4
v -1.4 0.3 1.3
v -1.3 0.3 1.3
v -1.3 0.3 1.2
v -1.2 0.3 1.2
v -1.4 0.3 1.1
v -1.2 0.3 1.1
v -1.4 0.3 1
v -1.4 0.3 0.5
v -1.2 0.3 0.5
v -1.4 0.3 0.4
v -1.2 0.3 0.4
v -1.8 0.4 2
v -1 0.4 2
v -1 0.4 1.8
v -0.9 0.4 1.8
v -0.9 0.4 1.7
v -0.8 0.4 1.7
v -1.8 0.4 1.6
v -1.7 0.4 1.6
v -0.8 0.4 1.6
v -0.7 0.4 1.6
v -1.7 0.4 1.5
v -1.6 0.4 1.5
v -1.4 0.4 1.3
v -1.3 0.4 1.3
v -1.3 0.4 1.2
v -1.2 0.4 1.2
v -1.6 0.4 1.1
v -1.4 0.4 1.1
v -1.2 0.4 1.1
v -1.1 0.4 1.1
v -0.9 0.4 1.1
v -0.7 0.4 1.1
v -1.6 0.4 1
v -1.4 0.4 1
v -1.1 0.4 1
v -0.9 0.4 1

# faces
f 4/5/1 2/5/1 1/5/1
f 5/4/1 3/4/1 2/4/1
f 5/5/1 2/5/1 4/5/1
f 6/4/1 3/4/1 5/4/1
f 10/5/1 8/5/1 7/5/1
f 11/4/1 9/4/1 8/4/1
f 11/5/1 8/5/1 10/5/1
f 12/4/1 9/4/1 11/4/1
f 16/4/1 14/4/1 13/4/1
f 17/2/1 15/2/1 14/2/1
f 17/4/1 14/4/1 16/4/1
f 18/2/1 15/2/1 17/2/1
f 21/2/1 20/2/1 19/2/1
f 22/2/1 20/2/1 21/2/1
f 28/4/1 24/4/1 23/4/1
f 29/2/1 25/2/1 24/2/1
f 29/4/1 24/4/1 28/4/1
f 30/2/1 25/2/1 29/2/1
f 31/2/1 27/2/1 26/2/1
f 32/2/1 27/2/1 31/2/1
f 36/3/1 34/3/1 33/3/1
f 37/2/1 35/2/1 34/2/1
f 37/3/1 34/3/1 36/3/1
f 38/2/1 35/2/1 37/2/1
f 42/2/1 40/2/1 39/2/1
f 43/3/1 41/3/1 40/3/1
f 43/2/1 40/2/1 42/2/1
f 44/3/1 41/3/1 43/3/1
f 48/3/1 46/3/1 45/3/1
f 49/2/1 47/2/1 46/2/1
f 49/3/1 46/3/1 48/3/1
f 50/2/1 47/2/1 49/2/1
f 54/3/1 52/3/1 51/3/1
f 55/2/1 53/2/1 52/2/1
f 55/3/1 52/3/1 54/3/1
f 56/2/1 53/2/1 55/2/1
f 59/2/1 58/2/1 57/2/1
f 60/2/1 58/2/1 59/2/1
f 63/2/1 62/2/1 61/2/1
f 64/2/1 62/2/1 63/2/1
f 67/2/1 66/2/1 65/2/1
f 68/2/1 66/2/1 67/2/1
f 69/4/2 70/4/2 72/4/2
f 70/2/2 71/2/2 73/2/2
f 72/4/2 70/4/2 73/4/2
f 73/2/2 71/2/2 74/2/2
f 75/2/2 76/2/2 78/2/2
f 76/3/2 77/3/2 79/3/2
f 78/2/2 76/2/2 79/2/2
f 79/3/2 77/3/2 80/3/2
f 81/3/2 82/3/2 84/3/2
f 82/2/2 83/2/2 85/2/2
f 84/3/2 82/3/2 85/3/2
f 85/2/2 83/2/2 86/2/2
f 87/3/2 88/3/2 90/3/2
f 88/2/2 89/2/2 91/2/2
f 90/3/2 88/3/2 91/3/2
f 91/2/2 89/2/2 92/2/2
f 93/3/2 94/3/2 96/3/2
f 94/2/2 95/2/2 97/2/2
f 96/3/2 94/3/2 97/3/2
f 97/2/2 95/2/2 98/2/2
f 99/2/2 100/2/2 101/2/2
f 101/2/2 100/2/2 102/2/2
f 105/2/2 106/2/2 107/2/2
f 107/2/2 106/2/2 108/2/2
f 103/2/2 104/2/2 109/2/2
f 109/2/2 104/2/2 110/2/2
f 111/2/2 112/2/2 113/2/2
f 113/2/2 112/2/2 114/2/2
f 115/2/2 116/2/2 117/2/2
f 117/2/2 116/2/2 118/2/2
f 119/5/2 120/5/2 122/5/2
f 121/5/2 122/5/2 123/5/2
f 122/5/2 120/5/2 124/5/2
f 123/5/2 122/5/2 124/5/2
f 125/5/2 126/5/2 127/5/2
f 127/5/2 126/5/2 128/5/2
f 131/5/3 130/5/3 129/5/3
f 133/5/3 131/5/3 129/5/3
f 133/5/3 132/5/3 131/5/3
f 134/5/3 132/5/3 133/5/3
f 136/2/3 134/2/3 133/2/3
f 136/2/3 135/2/3 134/2/3
f 137/2/3 135/2/3 136/2/3
f 138/2/3 135/2/3 137/2/3
f 139/5/3 137/5/3 136/5/3
f 140/5/3 137/5/3 139/5/3
f 141/5/3 139/5/3 136/5/3
f 142/5/3 139/5/3 141/5/3
f 145/2/3 144/2/3 143/2/3
f 146/2/3 144/2/3 145/2/3
f 149/2/3 148/2/3 147/2/3
f 150/2/3 148/2/3 149/2/3
f 153/2/3 152/2/3 151/2/3
f 154/2/3 152/2/3 153/2/3
f 155/2/4 156/2/4 157/2/4
f 157/2/4 156/2/4 158/2/4
f 159/2/4 160/2/4 161/2/4
f 161/2/4 160/2/4 162/2/4
f 163/4/4 164/4/4 165/4/4
f 163/4/4 165/4/4 167/4/4
f 165/4/4 166/4/4 167/4/4
f 167/4/4 166/4/4 168/4/4
f 168/4/4 166/4/4 169/4/4
f 169/4/4 166/4/4 170/4/4
f 171/2/4 172/2/4 173/2/4
f 173/2/4 172/2/4 174/2/4
f 175/2/4 176/2/4 177/2/4
f 177/2/4 176/2/4 178/2/4
f 179/5/4 180/5/4 181/5/4
f 181/5/4 180/5/4 182/5/4
f 183/2/4 184/2/4 186/2/4
f 184/2/4 185/2/4 186/2/4
f 186/2/4 185/2/4 187/2/4
f 188/2/4 189/2/4 190/2/4
f 190/2/4 189/2/4 191/2/4
f 191/2/4 189/2/4 192/2/4
f 190/5/4 191/5/4 193/5/4
f 193/5/4 191/5/4 194/5/4
f 195/3/4 196/3/4 198/3/4
f 196/3/4 197/3/4 198/3/4
f 198/3/4 197/3/4 199/3/4
f 199/3/4 197/3/4 200/3/4
f 200/3/4 197/3/4 201/3/4
f 201/3/4 197/3/4 202/3/4
f 203/2/4 204/2/4 207/2/4
f 204/2/4 205/2/4 207/2/4
f 206/2/4 207/2/4 208/2/4
f 207/2/4 205/2/4 209/2/4
f 208/2/4 207/2/4 209/2/4
f 210/2/4 211/2/4 212/2/4
f 210/2/4 212/2/4 214/2/4
f 212/2/4 213/2/4 214/2/4
f 214/2/4 213/2/4 215/2/4
f 215/2/4 213/2/4 216/2/4
f 217/2/4 218/2/4 219/2/4
f 219/2/4 220/2/4 221/2/4
f 219/2/4 221/2/4 223/2/4
f 221/2/4 222/2/4 223/2/4
f 223/2/4 222/2/4 224/2/4
f 217/2/4 219/2/4 225/2/4
f 219/2/4 223/2/4 225/2/4
f 225/2/4 223/2/4 226/2/4
f 217/2/4 225/2/4 227/2/4
f 227/2/4 225/2/4 228/2/4
f 233/2/5 231/2/5 230/2/5
f 233/5/5 232/5/5 231/5/5
f 234/5/5 232/5/5 233/5/5
f 235/5/5 230/5/5 229/5/5
f 235/2/5 233/2/5 230/2/5
f 235/2/5 234/2/5 233/2/5
f 236/2/5 234/2/5 235/2/5
f 237/5/5 232/5/5 234/5/5
f 237/2/5 234/2/5 236/2/5
f 238/5/5 232/5/5 237/5/5
f 239/5/5 236/5/5 235/5/5
f 239/2/5 237/2/5 236/2/5
f 239/2/5 238/2/5 237/2/5
f 240/2/5 238/2/5 239/2/5
f 241/5/5 232/5/5 238/5/5
f 241/2/5 238/2/5 240/2/5
f 242/5/5 232/5/5 241/5/5
f 243/5/5 240/5/5 239/5/5
f 243/5/5 235/5/5 229/5/5
f 243/5/5 239/5/5 235/5/5
f 244/2/5 242/2/5 241/2/5
f 244/5/5 240/5/5 243/5/5
f 244/2/5 241/2/5 240/2/5
f 245/4/5 244/4/5 243/4/5
f 246/4/5 244/4/5 245/4/5
f 247/2/5 242/2/5 244/2/5
f 247/4/5 244/4/5 246/4/5
f 248/2/5 242/2/5 247/2/5
f 249/2/5 242/2/5 248/2/5
f 250/3/5 248/3/5 247/3/5
f 250/1/5 249/1/5 248/1/5
f 251/2/5 242/2/5 249/2/5
f 251/1/5 249/1/5 250/1/5
f 252/5/5 232/5/5 242/5/5
f 253/5/5 232/5/5 252/5/5
f 254/2/5 242/2/5 251/2/5
f 255/5/5 252/5/5 242/5/5
f 255/2/5 242/2/5 254/2/5
f 256/5/5 252/5/5 255/5/5
f 257/3/5 251/3/5 250/3/5
f 257/2/5 254/2/5 251/2/5
f 258/2/5 254/2/5 257/2/5
f 259/2/5 254/2/5 258/2/5
f 260/4/5 247/4/5 246/4/5
f 261/3/5 250/3/5 247/3/5
f 261/4/5 247/4/5 260/4/5
f 261/3/5 257/3/5 250/3/5
f 261/3/5 258/3/5 257/3/5
f 262/2/5 261/2/5 260/2/5
f 263/3/5 258/3/5 261/3/5
f 263/2/5 261/2/5 262/2/5
f 264/3/5 258/3/5 263/3/5
f 265/3/5 258/3/5 264/3/5
f 266/2/5 265/2/5 264/2/5
f 267/2/5 265/2/5 266/2/5
f 268/5/6 269/5/6 272/5/6
f 272/5/6 269/5/6 273/5/6
f 272/4/6 273/4/6 274/4/6
f 274/4/6 273/4/6 275/4/6
f 270/5/6 271/5/6 278/5/6
f 278/5/6 271/5/6 279/5/6
f 276/4/6 277/4/6 284/4/6
f 284/4/6 277/4/6 285/4/6
f 280/3/6 281/3/6 286/3/6
f 284/2/6 285/2/6 287/2/6
f 287/2/6 285/2/6 288/2/6
f 286/3/6 281/3/6 289/3/6
f 289/3/6 281/3/6 290/3/6
f 290/3/6 281/3/6 291/3/6
f 282/3/6 283/3/6 292/3/6
f 292/3/6 283/3/6 293/3/6
f 290/2/6 291/2/6 294/2/6
f 294/2/6 291/2/6 295/2/6
f 292/2/6 293/2/6 296/2/6
f 296/2/6 293/2/6 297/2/6
f 300/5/6 301/5/6 302/5/6
f 302/5/6 301/5/6 303/5/6
f 303/5/6 301/5/6 304/5/6
f 304/5/6 301/5/6 305/5/6
f 298/5/6 299/5/6 306/5/6
f 305/5/6 301/5/6 308/5/6
f 308/5/6 301/5/6 309/5/6
f 306/5/6 307/5/6 310/5/6
f 298/5/6 306/5/6 310/5/6
f 310/5/6 307/5/6 311/5/6
f 310/4/6 311/4/6 313/4/6
f 311/4/6 312/4/6 313/4/6
f 313/4/6 312/4/6 314/4/6
f 314/4/6 312/4/6 315/4/6
f 309/5/6 301/5/6 318/5/6
f 318/5/6 301/5/6 319/5/6
f 314/4/6 315/4/6 320/4/6
f 316/3/6 317/3/6 323/3/6
f 314/4/6 320/4/6 324/4/6
f 324/4/6 320/4/6 325/4/6
f 324/2/6 325/2/6 326/2/6
f 326/2/6 325/2/6 327/2/6
f 321/3/6 322/3/6 328/3/6
f 328/3/6 322/3/6 329/3/6
f 316/3/6 323/3/6 330/3/6
f 330/3/6 323/3/6 331/3/6
f 328/2/6 329/2/6 332/2/6
f 332/2/6 329/2/6 333/2/6
f 330/2/6 331/2/6 334/2/6
f 334/2/6 331/2/6 335/2/6
f 336/3/6 337/3/6 338/3/6
f 336/3/6 338/3/6 340/3/6
f 338/3/6 339/3/6 340/3/6
f 340/3/6 339/3/6 341/3/6
f 340/3/6 341/3/6 342/3/6
f 342/3/6 341/3/6 343/3/6
f 343/3/6 341/3/6 344/3/6
f 343/2/6 344/2/6 345/2/6
f 345/2/6 344/2/6 346/2/6
f 347/2/6 348/2/6 349/2/6
f 349/2/6 350/2/6 351/2/6
f 347/2/6 349/2/6 353/2/6
f 351/2/6 352/2/6 353/2/6
f 349/2/6 351/2/6 353/2/6
f 353/2/6 352/2/6 354/2/6
f 354/2/6 352/2/6 355/2/6
f 355/2/6 356/2/6 357/2/6
f 354/2/6 355/2/6 357/2/6
f 357/2/6 356/2/6 358/2/6
f 358/2/6 356/2/6 359/2/6
f 359/2/6 356/2/6 360/2/6
f 360/2/6 356/2/6 361/2/6
f 361/2/6 356/2/6 362/2/6
f 358/2/6 359/2/6 363/2/6
f 363/2/6 359/2/6 364/2/6
f 362/2/6 356/2/6 365/2/6
f 365/2/6 356/2/6 366/2/6
f 366/2/6 356/2/6 367/2/6
f 367/2/6 356/2/6 368/2/6
f 363/3/6 364/3/6 369/3/6
f 369/3/6 364/3/6 370/3/6
f 366/2/6 367/2/6 371/2/6
f 371/2/6 367/2/6 372/2/6
